<?xml version="1.0" encoding="UTF-8"?>
<svg id="Calque_2" data-name="Calque 2" xmlns="http://www.w3.org/2000/svg" viewBox="0 0 236.63 372.71">
  <g id="Calque_1-2" data-name="Calque 1">
    <path d="M146.31,178.2c.88.69,6.29-.84,7.68,3.83,2.03,6.84-4.76,8.03-4.83,8.87l19.81,62.14c1.53,4.05,6.45,1.41,9.57,2.43,4.05,1.33,3.93,21.98,0,25.34l49.34,79.31c9.57-2.73,11.94,11.17,3.86,12.23l-62.55-.54c-4.15-4.43-1.13-11.32,5.01-10.51-7.35-73.57-102.23-74.49-111.73-1.43,5.56,2.82,9.49,5.79,4.74,11.94-8.65-.35-62.01,2.43-65.61-.41-1.95-1.54-1.94-6.97-.9-9.1,1.65-3.39,6.45-.8,8.99-3l48.09-77.94c-3.46-3.78-4.25-24.47.08-25.9,2.54-.83,7.08.97,8.84-1.16s8.47-22.67,9.96-27.04c1.65-4.86,11.1-33.79,10.6-36.27-.26-1.27-6.17-1.69-5.07-8.14.96-5.6,6.9-3.9,7.89-4.67.75-.59,3.34-16.15,3.8-18.7,6.92-38.08,10.42-76.98,13.36-115.52-5.56-2.33-8.85-6.88-8-13.08.1-.72,4.98-12.54,5.53-13.51,2.03-3.6,7.12-4.73,7.43-5.1.6-.74-5.43-14.62,8.47-11.94,7.1,1.37,3.85,8.75,4.62,11.29.42,1.36,5.4,3.6,6.78,6.3,1.14,2.23.82,4.3,1.68,6.32.63,1.48,2.65,2.29,3.23,4.76s.49,6.02-.23,8.35c-1.48,4.78-8.3,5.27-7.65,10.43,3.01,25.6,4.79,51.34,8.22,76.89.87,6.48,6.85,51.84,8.99,53.51ZM98.19,255.31h41l-10.01-46.99-20.86.12-10.13,46.87Z"/>
  </g>
</svg>