<?xml version="1.0" encoding="UTF-8"?>
<svg id="Calque_2" data-name="Calque 2" xmlns="http://www.w3.org/2000/svg" viewBox="0 0 1920 746">
  <defs>
    <style>
      .cls-1 {
        fill: #3fac4a;
      }
    </style>
  </defs>
  <g id="Calque_1-2" data-name="Calque 1">
    <path class="cls-1" d="M967.09,0c3.29,2.1,4,6.38,6.45,9.05,2.79,3.03,8.54,4.42,10.43,7.57,3.81,6.34-.1,11,1.32,15.67.62,2.03,5.6,5.48,7.24,7.77,3.93,5.5,8.27,23.95,14.74,9.11,10-.07,13.08,7.87,11.36,16.87s-16.61,22.34-8.97,32.88c4.59,6.33,26.7,9.24,34.42,10.08.31,2.45,0,1.59-1.4,2.1-3.47,1.27-9.16,1.22-11.48,4.51-3.28,4.64-1.86,14.81-3.55,20.45-5.45,3.44-21.99-3.34-22.53,5.5-.99,16.17,23.24.88,29.23,2.6,5.76,5.24,10.29,11.76,16.2,16.86,3.25,2.8,6.33,6.42,10.52,3.48-7.61-8.01-19.3-15.45-22.51-26.49-1.6-5.49-1.56-11.55-3.48-17.01,1.83-1.61,5.41,3.66,6.43,5.06,6.77,9.28,8.78,21.37,18.09,27.92,1.52.35,2.23-1.18,2.46-2.49,1.28-7.17.06-18.39-.15-25.84l-3.84-1.66-1.02,5c-2.45,1.81-5.27-8.85-5.75-10.73-.59-2.3.09-4.85-.67-7.33-1.63-5.31-14.66-15.88-13.56-21.42.23-1.16,1.29-1.67,2.52-.54,1.41,1.3,4.45,5.68,5.55,7.49,1.48,2.44-.16,4.29,3.93,3.53l1.01-17.01h2.98c1.05.87,2.61,19.68,4.78,23.75,1.48,2.78,9.74,8.28,12.23,11.26-.56-16.97-8.62-34.66-9.97-51.52-.13-1.6-1-17.46,2.97-14.48l20,71.99c1.31-7.14,3.18-14.27,4-21.5.57-5.04,2.71-22.2-1.03-24.94-2.58-1.89-9.03-1.43-11.4-4.6-1.31-1.76-3.73-16.08-2.55-16.94,5.03-1.24,9.97,19.98,13.98,16.99,4.87-11.52.85-24.2,5.02-35.99l2.93,2.55c4.27,31.63-3.64,69.54,27.56,89.44-.11-4.04-2.78-8.07-4.07-11.94-.48-1.45-.11-4.3-.61-4.88-.25-.3-2.56-.46-3.9-1.58-2.16-1.81-8.94-13.59-6.92-15.59,4.54-1.22,3.5,4.94,6.43,7.06,1.4,1.01,3.25.77,4.51,1.49,4.56,2.6,8.12,18.38,10.54,23.45,2.23-5.86,3.28-14.12,3.54-20.46.46-11.27-.42-26.8-9.53-34.52-5.24,6.69-11.58,20.88-22.01,13.99l.52-42.01c1.44.4,1.94,5.31,1.99,6.52.13,2.84-.79,5.66-.62,7.81,2.35,29.59,12.18,16.45,17.15-2.29.74-2.79,1.94-16.4,3.96-17.05.57-.18,2.44-.33,2.59.6,2.57,7.97,3.38,16.04,2.92,24.41l5.5-7.99,4.47,4.99,2.02-8c2.52-2.74,2.43,7.47,3,8.01l2.99-1c.48,4.39.14,6.89-2.99,9.99,1.46,1.38,11.48-12.02,15.9-7.89,1.22,8.98-1.63,18.37.11,26.89,2.61-.16,11.19-15.02,12.98-12.99.61,6.18.05,8.26-3.97,12.56-1.26,1.34-4.6,1.3-2.52,3.44,3.69.58,5.96-2.6,7.69-5.31l5.79-13.69c-1,4.97-2.37,24.42-7.7,25.87-2.06.56-3.95-1.03-5.77-.88-2.84.22-9.61,9.57-6.56,11.55l13.03,2.46c-.24-6.83,4.48-11.56,7.52-16.98,1.51-2.7,2.22-6.07,3.63-8.37,5.82-9.55,3.24,7.7,3.86,8.35,5.15,1.4,7.2-6.01,9.51-6.99,2.85-1.21.87,6.1,1.5,6.99l3.98-2c1.9,11.3-2.91,22.57-1.98,34l12.5-13.99c2.35-1.02,2.17,4.14,1.54,5.34-.82,1.58-3.88-.67-3.05,2.64l7.99.5c-2.85,3.65-9.27,4.1-12.02,6.99-2.12,2.23-6,13.86-6.75,17.26-.22,1-1.01,3.51.76,3.25-.57-2.24,5.93-7.13,7.01-5.99l-3.88,7.5c1.91,3.63,5.77,1.9,8.88,2.99-4.55,3.58-10.3,5.44-15.9,6.6.7,6.84-1.91,12.15-5.1,17.9.66.65,7.78-5.29,9.33-6.16,4.25-2.39,8.86-3.97,13.66-4.83l-2.99,3.49c5.73,4.49,13.8.93,17.98-4-.04-1.72-13.09-6.2-10.98-8.49,3.8.95,15.58-8.76,14.97-11.43-4.13-4.54-11.19-4.45-16.45-6.6-7.72-3.15,7.03-6.55,9.71-8.97,2.39-2.16,4.06-6.54.78-8.52-1.91-1.15-8.1.66-7-1.98,1.69-4.05,7.89-4.62,10.38-6.62,4.58-3.67,1.24-18.99,5.58-25.34.29-1.16,1.32-.65,2.04-.07,4.38,3.53,6.1,17.42,10.99,23.01,2.91,3.32,8.97,6.54,12.98,8.53l-.49,1.99c-4.99-.74-16.06,1.87-11.58,8.56,1.26,1.88,9.66,6.32,9.08,8.92-2.32,3.33-16.21,3.27-16.09,7,.17,5.35,12.19,9.03,16.11,12.01l-.68,2.5c-3.83-1.41-11.8,5.66-8.08,8.76,3.04,2.53,13.54-.55,16.63,4.91.46,1.54.11,2.66-.83,3.91-2.27,3.02-11.08,7.59-14.11,10.88-4.84,5.26.08,5.71.09,6.1l-1.05,3.41c9.43,4.83,15.2,5.25,24.67.2,3.33-1.77,7.6-6.7,9.6-7.44,2.11-.78,7.32.87,9.82-1.36.5-1.14.83-2.13.49-3.4-2.18-7.98-18-14.3-23.58-19.97,4.55,1.16,23.16-2.56,24.99-6.52.79-1.71-1.16-1.52-1.87-2.07-2.01-1.54-9.64-4.35-9.11-6.91,3.78-2.52,7.76-1.3,11.94-4.06,1.79-1.18,6.4-6.37,4.98-8.37l-18.92-6.58c3.44-3.09,11.42-3.97,13.47-8.53,4.14-9.22-10.28-3.22-8.46-9.47.5-1.71,4.82-1.58,6.3-2.45,6.82-4.01,6.89-20.29,9.63-26.62,5.09-11.75,7.75,10.22,8.78,13.34,3.12,9.46,9.8,13.35,19.28,15.23.29,2.59-.01,1.59-1.46,2.02-3.18.96-12.26.6-12.6,4.47-.51,5.76,6.23,7.34,10.05,9.05.83.37,2.81.2,2,1.93-2.29,4.92-16.69,1.49-17.86,6.22.12,4.54,4.88,9.12,8.86,10.81,2.33.99,9.7,1.5,10,3,.86,4.29-15.88,1.26-13.93,7.86,1.02,3.45,17.22,6.15,20.93,5.63,1.1.9-2.76,4.33-3.47,5.02-3.64,3.57-19.09,13.74-18.14,19.02,1.23,6.86,10.63-.89,13.92-.09,1.11.27,2.08,4.95,5.17,5.02,3.25.07,9.98-7.43,12.5.5-3.85,11.06-16.88,7.28-26.24,10.77-1.05.39-2.97.34-2.73,1.74,4.92-.44,22.48,4.89,25.07,8.43,3.35,4.59-2.32,10.44-1.59,13.69.99,4.45,12.47,10.12,12.55,14.42l-1.69,2.31c-3.43.66-7.27-.41-10.63.36-2.5.58-4.43,3.91-7.58,2.67-1.77-9.34-7.54-9.93-15.89-7.66-4.34,7.93,12.26,9.69,18.02,12.05,2.77,1.14,7.98,3.07,10.11,4.89,3.41,2.92,3.66,8.39,7.6,11.4,3.34,2.56,7.77,2.11,10.56,5.44l.49-4.98c1.09-.02,2.23-.17,3.29.2,1.25.43,5.02,5.77,5.7,2.28.81-4.15-7.27-14.85-5.01-20.49h-2.99c-.82.79,1.83,7.12-2,6.01l-2-13c5.57-.74,8.41,4.18,11.99,7.51.64,2.67-2.49.97-2.96,1.51-2.71,3.07,17.84,24.72-3.03,22.98-.23,4.62,5.19,8.77,4.02,13.35-.22.86-2.7.29-2.01,2.13l6.98,7.02c-1.31,2.3-7.3-3.44-6.99-.02l8.98,6.51c-.26-4.59-1.78-8.98-1.84-13.59-.01-1.19-1-3.62.83-3.4,5.84,11.04,11.49,22.32,19.52,31.99l-5.8-36.2c-.53-7.86-11.75-15.5-13.69-21.31-.88-2.62,3.27-.8,2.98-1.98l-3.99-10.5c2.83-3.11,10.25,16.36,11.98,16.99l-.99-20.5c0-1.18,1.36.07,1.52.48,1.04,2.69,1.45,25.07,3.98,25,3.89-2.97,4.19-7.99,6.04-11.99.69-1.5-.14-2.47,2.46-1.99-2.54,10.67-3.86,21.49-3.03,32.53.87,11.67,7.01,21.85,4.05,33.46,5.63-4.02,2.16-14.71,3.08-21.41.5-3.63,2.73-6.19,3.64-9.36,3.07-10.75-1.43-35.76-4.19-47.26-.98-4.07-2.5-7.93-3.55-11.96l-4.98,7c-.31-8.41,4.35-29.66-3.47-35.07-2.56-1.77-6.86,3.11-7.83,5.37-1.14,2.66,1.11,4.02-1.21,5.68-4.04-3.83-8.73-7.64-6.29-13.76l4.74-1.2.95,3.38,3.1.59-1.99-7.99,6.43,3.06,2.55-3.07c-.09,2.73.49,7.08,4,6.99,2-2.28-4.36-13.86,2-13.99.93.89,1.82,21.42,2.96,25.54.38,1.37.12,3.11,2.03,3.46.11-4.91.65-10.84,1.96-15.55.38-1.37.13-3.1,2.04-3.45-.02,7.44-.99,14.45,4.05,20.49-1.3,3.72-4.51,3.67-5.09,7.95-1.14,8.44,2.63,16.27,3.05,24.55,1.84,2.31,3.98-6.8,5.5-7l1.51,3.99c2.25-.59,1.97-3.16,2-5,9.66,7.62,9.7-5.81,11-7.01.29-.27,2.52,2.05,6.41-3.06,5.21-6.84,8.94-18.14.57-23.91l10.86-.15c2.24-2.51-.22-13.29,2.66-13.86,4.59-.91,15.43,18.86,25.73,16.82,1.88-.37,3.63-2.28,5.49-2.64,3.71-.72,6.17,1.96,10.01,2.56,4.13.65,7.77-.16,12.05.94,5.22,1.35,9.04,8.33,14.2,6.92s6-10.81,4.08-15.2c-3.61-8.26-26.81-3.86-33.56-9.44-1.95-7.1-9.6-12.91-11.76-19.24-.89-2.6-.61-5.19-1.46-7.54-1.08-2.98-5.91-11.16-5.22-13.53,9.13-7.82,22.76-3.18,33.9-5.67-7.66-11.19-17.39-15.92-12.75-31.24,2.2-7.28,11.56-5.54,16.8-10.2,1.18-1.05,7.72-9.53,8.79-11.21,10.3-16.09-15.49-20.31-18.45-33.3-1.21-5.33,5.34-10.98,9.69-13.46,3.75-2.13,14.65-4.15,15.99-6.26,2.83-4.48-1.62-11.59.37-14.39,4.56-1.05,13.98-4.63,15.11-9.85.36-1.65-2.57-5.55-2.57-8.59-.01-8.24,9.72-15.75,17.41-11.39,3.17,1.8,3.62,6.35,6.06,8.94s7.74,3.81,9.35,6.65c2.36,4.14.29,9.94,1.64,14.36.77,2.52,6.04,6.73,7.99,10.01,2.1,3.53,4.52,14.27,9.91,13.73,4.59-.46,12.71-11.98,16.21,4.15,2.82,13-4.21,14.25-8.94,23.18-10.31,19.48,7.93,22.9,22.39,28.37,1.31,1.01,1.07,2.51,1.02,3.96-.1,2.77-3.96,20.87-5.29,22.3-4.77,5.13-19.73-2.51-21.6,4.95-.47,1.87,2.08,7.95,3.85,8.81,4.99,2.41,21.54-4.3,29.75-.75,3.07,1.33,9.71,13.57,10.19,16.82,1.46,9.73-11.92,25.94-21.48,26.47-6.97.39-17.53-8.39-22.87,1.04-6.66,11.78,6.51,10.52,13.62,12.21,9.54,2.26,13.02,7.17,24.06,3.48,8.21-2.75,6.65-7.78,9.86-14.14,6.09-12.11,16.83,3.23,16.95,11.88.11,7.35-2.47,31.52-5.35,37.72-1.32,2.83-8,9.95-7.58,12.12l14.35,17.63c7.02-4.6,1.04-8.3.54-13.61-1.12-11.98,10.6-12.6,13.67-23.16.89-3.08,1.05-10.98,2.19-12.58.85-1.19,7.62-1.78,8.66-6.55.43-2-2.27-3.5-2.58-5.66-.88-6.15,9.17-15.67,14.61-11.51,1.76,1.35,1.84,5.47,3.37,7.62,1.8,2.52,6.03,3.71,7.89,7.1,1.69,3.09,1.46,7.06,2.92,10.08,1.81,3.76,5.71,5.75,7.69,11.31.87,2.45,1.58,8.7,2.51,9.49s4.86,1.64,6.95,3.05c1.44.97,6.11,6.42,6.56,6.42,2.94-5.22,13.85-9.17,14.49-14.58.41-3.44-1.69-7.16-1.05-10.8l4.04-2.1c-1.47-4.42-5.74-5.08-8.4-7.59-6.74-6.37-7.04-16.29-6.58-24.93l19.01,1.01c-.49-2.28-.22-10.98,3.48-10,1.28.34,1.11,3.16,2.19,4.07,1.24,1.04,4.01,1.08,5.77,2.98,2.81,3.03,4.77,12.15,3.04,15.94-1.02,2.23-4.35,2.3-5.06,4.91-1.53,5.59,1.38,11.51-5.41,14.6,4.92,3.91,6.21,8.49,6.41,14.57,3.63,1.65,7.05.56,11.12,1.87,3.44,1.11,5.39,4.21,8.15,4.85,7.07,1.64,15.1-5.36,17.06,6.96,1.99,12.56-8.39,9.32-9.63,13.97-.74,2.77,2.23,6.49.37,10.29-1.63,3.33-12.13,3.75-7.98,12.98,1.89,4.2,9.01,3.21,11.47,5.52,2.72,2.57.7,9.08,4.71,10.3,4.87,1.48,6.17-2.16,9.85-2.76,1.57-.26,11.69-.3,12.31.09,1.41,2.67.74,5.88,1.89,8.61,1.02,2.43,4.3,3.74,5.04,6.96,2.35,10.25-7.03,12.79-5.79,22.3l-9.99-3,.54,8.01c-1.75,2.85-15.46,3.52-18.83,2.78-3.84-.85-2.52-3.98-5.71-3.78-.94,1.22,1.09,9.68,2.46,11.03,1.79,1.76,6.06.18,8.06,2.72,2.14-.02,4.02-9.13,13.41-2.19,7.31,5.4,1.85,15.83,5.57,17.43s2.29-4.62,5.72-6.27c3.64-1.74,17.06.1,20.2,2.34,3.42,2.44.24,11.67,8.1,3.97,4.82-4.73,5.83-12.83,14-13.07,4.32-.13,16.05,4.54,17.28,8.75,3.35,11.49-12.45,9.78-18.81,12.3l2.85,6.34c-8.52,6.48-2.97,17.07-16.74,16.75.31,5.51-2.28,10.36-4.09,15.42-5.29,4.08-21.72-5.24-24.58.49-1.81,3.63,12.79,15.13,7.61,18.54l-4.04.94c6.63,3.31,6.64,10.68,13.07,13.11-2.01,4.07-4.64,18.34-7.5,20.47-4.75,3.53-6.71-3.46-10.52-4.63-2.8-.86-5.59-.06-8.33-.67-2.08-.47-4.15-2.2-6.49-2.56-5.51-.86-12.49,2.22-18.78-1.29l-6.01,5.13-6.47-2.68c-13.05,8.5-15.27,22.67-16.02,37.08-.41,7.9-.44,18.2,0,26.08.16,2.82,1.09,13.2,2.14,14.86,1.29,2.02,5.59,3.44,7.88,4.12l58.01,11.47c.45-1.73-.72-2-1.49-3-4.21-5.48-11.41-10.43-15.5-16.51l1.47-1.47,25.02,19.98c1.62-.99-.32-2.21-.99-3.01-2.39-2.82-8.05-6.94-7.01-10.98l6.03,4.97,7.46,11.01c3.71-5.46-3.14-11.4-5.69-16.79-.38-.82-2.42-3.8.19-3.2.49,4.63,10.8,8.48,11.34,9.16.88,1.12-.11,7.15,3.16,7.83-1.78-15.93-4.95-33.48-12.82-47.67-2.09-3.77-9.75-13.02-10.18-15.82-.09-.59-.26-1.65.51-1.5l5.55,4.45,10.94,15.54c.78-8.22-.62-16.34-1.04-24.45-.06-1.17-.7-5.54,1.04-5.54,3.68,24.73,9.46,49.38,17.5,72.99l9.5-42v18l5.99-10c1.78,6.53-6.21,28.64-.02,32.53,1.73,1.09,2.67-.38,3.46-1.61,4.6-7.13,6.74-35.73,9.03-45.96.35-1.56.76-5.51,2.52-5.96,2.13,13.36-2.73,27.4-1.98,40.99,1.01,1.03,13.32-6.25,14.96-7.53,1.53-1.19,2.77-4.88,4.52-4.46,7.36,5.67-9.3,23.44,4.51,22v2c-5.97,6.01-10.14,13.94-11.03,22.45l11.03,2.55v2l-2,156H.19c.44-39.97-.6-80.03,0-120,0-.18,1.04-1.57,1.07-3.38.22-13.61-2.1-35.8-.03-48.08.2-1.18.59-2.37,1.95-2.54l2.01,8v-17l8.01,22.99c1.75.01,1.11-4.39,1.02-5.53-1.21-16.76-6.14-35.47-8.74-52.26-1.34-8.68-2.52-17.46-3.28-26.2,2.62-.49,1.76.51,2.45,1.99,2.96,6.3,3.64,15.99,7.29,21.73.64,1.01-.07,1.76,2.24,1.28l5.31-32.2,4.69-11.79c-4.88,18.53-1.5,37.74-4.03,56.45l2.05,36.55c2.63.21,1.66.12,1.96-1.52,2.98-15.96,8.52-49.69,15.99-63.03.78-1.38.84-2.89,3.04-2.45l-10.01,59.48c2.16-.07,4.12-3.16,5.24-4.76,3.07-4.4,6.1-12.83,8.7-16.11.91-1.15,1.89-.53,3.07-.61l-13.01,38.48c7.48,2.55,9.15-2.74,11.5-8.5,10.51-25.84,16.49-59.91,25.48-87.52,1.88-5.77,5.34-12.43,7.02-17.99.46-1.52-.06-1.63-1.43-1.44-2.53.35-5.06,1.81-7.89.81-1.54-.54-2.11-3.13-3.67-4.33-2.32-1.78-12.65-3.17-11.98-6,.73-3.07,12.05-3.08,13.55-5.48,2.43-3.88-7.44-7.19-3.58-9.56,4.49-1.54,10.08-.81,14.42-1.58,11.65-2.06,47.66-25.15,51.66-36.34,1.57-4.4,1.03-9.91,3.93-14.07-5.5-.56-20.99,3.41-25.31,6.44-1.96,1.38-2.58,7.45-6.2,8.11-5.81,1.06-11.25-5.86-16.85-6.9-4.26,1.26-12.06,18.75-13.21,18.93-4.03.65-5.61-6.1-7.2-8.79-.35-.6-.03-1.96-1.7-1.27-2.05.85-10.47,11.62-13,10.99-4.04-10.5-19.88-9.26-5.99-20.98,25.13-21.21,44.06-20.83,70.83-33.16,11.88-5.48,14.75-10.74,16.52-23.47.36-2.55,1.53-16.41.11-17.38-10.35,2.09-7.55,16.02-18.26,20.21-6.38,2.5-4.64-.19-7.34-2.14-4.37-3.15-15.07,7.73-19.91,8.01-1.24-.02-10.94-5.9-12-7.06-1.55-1.68-1.53-3.55-3.51-5.49-3.86-3.77-10.49-3.96-13.94-8.04,12.73-6.7,22.93-16.48,35.96-23.02,11.15-5.6,22.99-8.35,34.27-13.46,3.65-2.79,6.23-11.24,4.79-15.57-7.7-4.81-27.6,14.36-34.32,16.77-4.94,1.77-9.36-.55-12.24,5.77-3.15.82-4.02-9.36-8.02-10.04-2.91-.5-10.26,1.57-12.87,3.19-1.78,1.11-1.44,4.27-5.49,2.73-.82-8.94-4.72-7.35-10.04-10.45-10.73-6.26,12.05-10.08,16.18-11.66,6.88-2.64,13.29-6.82,20.49-9.51,9.65-3.61,19.87-5.27,29.45-8.54,3.39-1.16,20.14-7.44,19.75-11.22-5.44-3.04-5.84-3.2-4.87-9.91.83-5.75,8.68-15.54-2.35-13.35-6.32,1.26-14.95,8.19-18.57,13.43-2.18,3.15-3.4,8.59-5.09,10.71-.92,1.16-1.89.52-3.07.63-1.71-4.36,4.3-16.27-2.37-15.97-3.3.15-9.09,3.72-11.61,2.52l-6.82-14.25c-.02-2.39,14.73-14.57,17.48-16.13,4.1-2.32,7.85-2.54,11.72-4.28,3.48-1.57,15.4-10.22,16.81-13.2.61-1.29.52-2.64-.7-2.67-5.61.57-20.41,14.22-24.5,11.5-.85-.56-1.11-2.45-2-3.02-2.54-1.62-5.69.26-8.34.12-5.24-.27-9.75-4.19-15.66-2.63,4.83-24.09,35.34-21.73,52.99-32.01,2.68-3.67-12.39-6.94-14.55-7.01-6.12-.19-10.19,4.23-16.44,3.02,2.51-7.69-9.12-11.48-11.04-18.52-.05-4.62,12.36-3.16,15.43-3.58,5.81-.79,20.54-6.05,21.62-12.39.52-3.04-1.27-.51-1.51-.51h-15c-1.35,0-2.11-2.76-.5-4.5,1.8-1.95,10.14-4.37,13.05-5.95,6.51-3.54,20.53-10.76,14.38-19.49-4.28,1.58-14.43,4.88-18.44,2.46-1.38-.83-2.15-4.81-3.56-6.44-1.29-1.5-16-9.83-4.97-11.13,7.72-.91,12.34,2.46,22.09-.89,3.67-1.26,9.38-3.88,7.49-8.58-4.09-2.3-14.79,2.98-15.08-4.93,6.59-3.06,13.63-6.56,16.04-14.02-1.87-3.31-5.79.54-7.82-.69-.36-.21-.8-2.3-2.19-3.3-2-1.44-7.95-2.45-6.98-6.02.4-1.47,7.62-2.07,9.99-3.02,3.98-1.6,9.39-6.68,11.65-10.35,1.14-1.86,7.15-18.29,8.41-6.7.93,8.61-1.15,24.83,9.89,27.11,4.25.88,8.93-.78,12.05,1.96.94,4.39-19.03,6.32-16.86,14.76,1.22,4.72,8.87,4.15,12.37,4.75,1.45.24,1.61-.71,1.51,1.49-.32,7.49-10.85,6.97-14.07,12.96.44,2.98,6.65,6.93,9.33,7.75,3.06.93,8.49.35,9.77,1.22,4.19,2.86-5.77,13.11-7.71,15.47l-11.34-4.42c7.01,8.94,21.33,5.75,31.49,7.51,8.86,1.54-4.72,9.7-6.04,10.95-2.11,2-2.66,3.89-4.15,6.15-2.95,1.97-16.83-5.1-18.85-2.13-3.08,4.52,10.01,16.11,12.54,19.53l-11.98-1.5c-1.62,1.91,6.54,5.39,8.73,5.76,3.82.65,7.7-.16,11.52.48,3.13.52,5.7,2.75,8.51,3.49,3.13.82,21.04,3.66,21.3,4.87.82,3.82-3.65,5.61-5.27,8.7-1.31,2.49-1.95,9.13-3.78,10.22-7.32,2.02-14.26-1.66-21.4-2.44l-1.15.89c-1.82,14.17-7.73,2.22-14.98,2.95-3.15.32-4,1.14-3.4,4.48,12.99,8.58,22.16,20.14,38.91,21.62,1.11,5.48-8.55,5.27-8.71,9.61-.11,3,4.65,15.43,7.19,17.4,9.82,2.98,18.43,9.56,27.83,13.17,2.24.86,11.29,3.71,13.06,3.52,5.07-.54,2.84-5,3.77-6.57.77-1.3,5.59.1,8.22-1.26,2.35-1.22,6.11-5.63,6.65-8.38l-6,1.49c2.89-11.46-4.44-4.76-11.52-4.93-2.37-.06-14.04-1.21-14.47-2.58-1.05-3.33,2.95-3.2,4.49-4.49,5.63-4.67,9.65-11.29,18.49-10.01-1.18-7.21-10.01-10.41-10.99-17.99,2.07-1.96,12.67,9.44,16.48,9.58,4.06.15,8.51-6.64,11.49-9.12l-13.01-10.18-5.96-13.28c6.85-1.32,6.58,9.38,11.99,7.5-2.24-2-3.36-4.46-2.99-7.5,6.37-.48,7.51,7.11,11.98,9.99-1.31-5.36-2.55-11-2.98-16.52-.09-1.1-.73-3.73.98-3.48.7,3.49,2.27,9.5,4.14,12.37,1.3,2,4.43,3.02,4.77,4.28.42,1.58-2.42,5.9,2.67,6.39,7.35.71,5.52-17.57,12.45-6.5l16.99-4.56c.32-2.12.09-1.61-1.26-2.22-11.08-5.01-21.69.95-32.53-4.97l-2.2-10.79c7.32,3.34,7.99-2.03,13.32-4.86,4.78,2.52,9.16,6.65,15.01,5.91,2.97-.74-1.14-9.35,2.18-10.05,2.06-.43,4.93,6.29,8.55,3.57,5.34-3.85-7.09-14.77-11.02-16.12-1.9-.65-4.91-.07-6.11-.89-1.09-.75-1.04-4.23-2.06-5.94-2.06-3.46-6.63-7.11-8.88-10.62h14.5c2.85,0,15.23-2.76,14.45-6.4-3.67-4.64-9.77-5.44-14.83-7.72-2.14-3.41,4.75-4.31,7.48-4.78,5.26-.9,8.05,1.41,11.6-4.4,11.68-19.16-13.71-7.88-20.18-18.2,2.27-2.24,5.49-1.38,8.53-2.45,3.2-1.12,10.35-5.64,9.51-9.46-.36-1.64-15.02-3.8-17.61-4.56-1.46-.43-1.73.55-1.45-2.02,12.05-3.58,19.75-9.25,24.48-21.02,1.48-3.69,4.19-17.98,8.15-18.81,3.79-.23,4.99,5.03,5.66,8.1,1.51,6.93.14,15.39,2.42,22.49,3.78,3.99,9.06,7.45,14.27,9.24.32,2.44,0,1.58-1.39,2.09-5.26,1.92-17.7,3.3-8.1,10.89,6.04,4.77,11.35,2.78,17.48,5.51-3.79,4.42-24.3,8.27-25.05,13.03-1.42,8.96,19.94,11.34,26.05,11.47.38,1.82-.49,1.98-1.73,2.76-2.56,1.61-17.25,6.83-17.24,9.74.82.81,1.49,1.96,2.69,2.3.52.15,7.4,1.2,7.8,1.2h21.5c.06,3.04-3.55,4.07-5.53,5.97-4.07,3.92-8.04,9.84-12,13-5.07,4.04-22.26,7.98-11.96,16.02,7.2,5.62,16.4,4.03,22.81-1.85,6.75,6.08,17.16,8.63,26.22,7.91,7.56-.6,5.66-4.07,9.71-6.28,6.19-3.39,14.77-.48,14.73,7.23l-2.98-1c.05,5.75,3.86,3.67,7.35,4.35,1.75.34,2.77,1.92,4.63,1.64l-9.95-21.54-25.91-11.58-.13-2.87c4.8-1.86,13.81,6.75,17.3,5.87,3.1-.78,5.66-8.87,3.68-11.87h-1.98c2.14,4.12,1,8.17-2.5,10.98-2.31-5.23-5.22-3.28-9.32-4.66-1.3-.44-14.63-5.54-13.17-7.31l16.99.49c-2.63-.65-7.64-7.97-8.2-8.29-2-1.15-8.18,1.39-9.79-2.73-.8-2.06,1.44-1.5,2.46-1.47,3.73.12,8.22,1.48,11.03,3.98,1.03-3.87-5.63-6.22-9.09-6.91s-6.17,1.19-8.99-2.01c-3.2-3.64.38-4.05.37-6.4,0-1.29-2.76-5.74-1.8-6.67.2-.19,2,.34,2.74-.19,1.5-1.07-.15-5.93,5.24-3.3,5.04,2.46,3.7,9.04,4.12,9.37.59.46,2.73.03,3.99,1.52s.84,4.47,2.46,6.55c1.03,1.32,7.02,5.46,8.45,4.04.29-4.75-3.07-9.22-7.99-9.49l4.07-3.08-3.07-7.42,5.98,2.99,3-8.99c-1.23,9.68,4.8,17.06,2.68,26.75.79,2.26,13.89,4.7,10.84,11.24l-7.5-5.99c1.83,6.36,5.92,11.02,3,17.99l4.9-.91,8.08,17.91c2.46-5.86.11-11.7-.03-17.45-.11-4.46,1.42-21.22-1.9-23.06-1.09-.6-3.67,1.7-5.04-.98l8.95-7.93c-2.87-2.88-12.97-13.02-11.95-17.02.21-.82,2.06-2.3,3.01-1.07,1.28,1.12,2.32,2.38,3.21,3.84,1.57,2.58-.04,5.22,2.76,4.68l3.51-11.99c1.78,4.72,6.41,5.28,9.06,7.93,5.62,5.61-.59,12.12-1.56,9.53.46-3.91-2.06-6.35-4.99-2.97l14.97,22.49c2.64-8.81-.77-13.08-5.98-19.48.65-3.02,7.6,1.65,6.8-6.73-.89-9.3-9-13.86-8.8-22.78l5.99,3.99c-2.27-3.41.52-4.38,1.51-7,2.71-7.14-1.72-14.84-4.5-21.5l2.99-.49-2-8.99,5.99,1.99c1.18-4.01.7-8.18,1.29-12.23.16-1.08.27-4.4,2.13-3.68,6.62,1.21,1.34,13.48.84,18.46-.16,1.57.25,12.07.75,12.44,7.69-.57,1.33-16.32,2-16.99l6.95,1.96c-.21-1.33,3.48-8.81,5.03-6.96l-2.98,13.99c3.93-1.48,4.8-7.54,8.99-7.99.74.71-7.38,15.25-8.06,17.43-2.08,6.68-1.47,15.1-5.94,21.55,1.72-.83,5.98-.15,7.03-.58,6.99-2.82,11.96-25.85,15.94-27.94,1.33-.7,2.59-.92,3.55.5l.48,8.02,6.98-3c2.09,2.23-16.67,17.5-12.87,22.89.44.62,14.03,4.16,2.89,9.11.87-2.5.7-3.42-1.52-4.99l-2.51,3-3.97-3c-.21,8.11-7.19,14.22-10.49,21.02-3.78,7.79-6.92,19.47-4.5,27.98,5.38.44,6.32-7.05,5.99-11l7.47,2.01c3.15-1.92.47-7.87,1.69-9.84l5.83-2.18-4-2c5.73-4.67-1.88-10.33,0-16.98l3.52.97c.97,1.44-.16,17.46,5.69,8.74,2.42-3.61,3.62-10.18,6.27-14.73,1.52-2.61,4.01-8.4,7.51-6.49-3.64,4.17-2.23,9.7-3.99,14.5l8.49-7,4.01,6.99c1.53-1.4,1.63-3.35,2.95-5.03,1.55-1.96,13.26-13.05,10.1-4.89-.91,2.37-4.58,4.56-4.42,6.27l4.37,6.67,11.48-9-7.98,12c4.03-1.37,8.28-1.23,12.34,0,3.27,1.88-3.29,5.33-4.68,6.17-3.22,1.94-6.84,3.12-10.18,4.82-2.8-1.19,6.95-9.4,2.03-7.97-12.11,3.51,2.13,14.93,8.48,16,2.7,3.25-7.91,6.6-10.05,7.44-7.75,3.05-16.09,4.81-23.95,7.56l13,5.99h-18.5c-2.42,0-16.66,5.7-19.86,7.14-2.93,1.32-14.74,7.18-15.45,9.55-1.01,19.28.07,38.42,3.82,57.31,1.14.17,1.94,0,2.97-.52,7.65-3.83,17.82-14.99,25.7-20.3,2.42-1.63,6.12-4.69,8.87-5.13,8.02-1.3,32.05,6.29,38.78,11.11,1.37.98,3.01,1.8,2.66,3.83-11.86-5.74-23.74-8.62-36.99-8.99,7.17,6.54,19.08,6.97,26.78,12.68,1.61,1.19,1.4,1.1,1.21,3.31-3.85.07-10.4-5.74-13.81-3.79-.81.47-.64,3.54-3.18,2.79l-.14-4.86c-1.99-.92-4.16-1.29-6.36-1.22-4.38.14-22.68,6.02-26.74,8.35-7.48,4.29-13.01,13.49-15.31,21.69-.37,1.32-2.45,10.94-2.45,11.55v19.5c3.59-.43,3.8-4.81,7.26-6.24,1.92-.79,3.69-.94,5.74-.76.99,5.75-5.45,7.59-8.44,11.05-5.39,6.27-5.67,15.28-2.88,22.76.61,1.63.99,4,3.35,2.71s9.88-17.24,10.53-20.47c.87-4.31-1.3-20.09,3.92-20.1l2.43,1.69-.91,9.34c2.67.56,1.72-.7,2.48-1.97,6.34-10.64.71-20.95,4.78-32.26,1.16-3.22,3.04-5.86,6.74-5.77-3.81-4.2-3.57-9.68-2.53-15.02,5.53-2.83,2.09,4.18,2.93,7.06.54,1.86,3.09,4.57,5.09,4.99l3.55-5.46-7.03-9.55,16,7c1.6,2.2-6.55,5.85-7,7.98l11.49-1c2.26,4.78-3.43,3.53-6.24,4.76s-4.05,5.86-7.75,1.25c-1.45.72,1.36,4.3,2.27,5.01,7.89,6.2,18.16-3.48,20.22-2.01,1.32,2.68.42,7.84-2.68,8.81-3.41,1.06-5.68-.89-7.72-.82-.47.02-6.62,3.39-7.94,4.15-3.89,2.25-7.59,7.9-9.65,11.84.92.72,16.57-6.28,20.54-4.79.74.28.32,1.67.47,1.77h1.97c-.48-2.34,8.92-7.79,6.86-2.63-.63,1.59-8.61,7.8-10.44,8.56-4.04,1.67-9.13,1.68-13.68,3.32-12.36,4.46-13.21,9.71-18.72,19.77.58-1.36,7.2-2.54,8.99-1.99.55,5.28-10.96,6.58-8.99,1.99-6.51,11.89-13.06,24.44-17.86,37.45,5.16,49.77,2.72,100.08,3.82,150.09.21,9.27.19,22.07,1.13,30.87.1.96.44,3.76,1.9,3.58l5-16.99c.25,4.94-.21,12.69,1.18,17.33.3,1,1.2,1.9,2.32,1.66l5.53-9.99,3.47,1.99c3.19-4.31,8.65-3.99,12.05-7.96,3.77-4.4,3.13-10.74,6.97-15.03-.07,1.49,1.49,4.41,1.49,5.5v20c0,.19,1.61,1.78,1.99,1.5l6-11.99,2.51,26.99c5.54-7.98,5.9-19.74,12.49-26.99l-3.49,22c7.09-9.49,8.44-23.56,16.49-31.99l-13.98,43,17.98-31c1.84,2.39-5.93,22.04-3.48,22.01l6.48-2.01c.31,5.08-5.42,7.62-5.98,12.6-.58,5.29,2.88,12.72,1.99,18.4,2.38-.24,5.68-12.5,7.98-10.01l.99,3c-1.11-4.18,3.78-3.6,4.08-4.6,2.45-8.18-6.32-16.76-6.07-24.88,3.01-1.45,4.72,3.94,6.51,5.48l1.4-3.59-2.39-31.42c-24.28-14.49-52.86-18.41-78.48-29.48-.31-3.32,11.03-4.95,12.96-8.01-3.46-4.09-13.59-2.87-12.68-9.86,1.01-7.76,19.26-.95,24.7-2.64,1.82-1.6-11.63-13.98-12.97-15.49,0-1.03,8.14-6.19,8.76-9.14s-4.44-6.46-1.83-10.65c1.35-2.16,7.42-2.94,7.08-5.2-.53-3.56-13.69-10.15-14.98-18.06-2.4-14.67,13.44-4.63,20.92-10.95-3.54-3.21-8.33-3.14-12.66-5.32-12.02-6.04-10.03-11.93,2.61-14.27.69-3.39-1.88-6.24-1.98-9.45-.15-4.72,6.55-15.12,11.62-15.44,7.66-.49,44.3,18.05,35.42-3.02-7.12,2.54-14.01,7.92-21.23,2.02-.79-.65-10.53-15.69-11.15-17.13-1.55-3.57-2.44-7.1-1.1-10.9,2.24-4.58,25.1.42,29.42-5.6-9.16-14.63-25.14-23.33-.85-35.06l1.4-15.35c2.28-2.48,9.56-2.32,10.4-5.68,1.07-4.29-6.65-8.9-5.87-11.78l17.45-7.06c4.41-.38,6.62,2.85,9.25,3.34,1.48.28,2.69-.76,4.98-.08,1.73.51,6.34,3.58,6.16,5.6-.41,4.8-13.84,8.73-10.86,11.67,4.54.22,20.92,1.12,17.35,8.79-.72,1.55-2.56.62-2.33,2.21,3.6-.69,14.96,1.86,16.5,5,2.9,5.94-9.6,13.48-10.29,19.34,6.49,10.75,2.77,22.73,18.76,24.7,1.02,3.1-1.51,2.78-1.72,3.19s-.63.59-.27,1.14l5.01,15.62c-7.64.63-28.66,11.47-11.81,16.36,8.65,2.51,11.52-6.96,18.78-8.88,10.7-2.82,13.13,1.8,20.52,7.53.76-.18,2.51-4.85,2.51-5.5v-33.5l8.3,46.2,4.67,11.33c3.15,2.08,4.67-6.29,4.92-8.14.98-7.25,2.48-32.54.66-38.45-.68-2.2-10.01-11.41-12.38-14.61-11.65-15.69-18.65-34.63-32.14-48.85-5.15-5.43-21.46-14.94-10.66-22.39l13.65,15.41c-1.11-4.43-3.59-9.21-5.84-13.16-4.21-7.4-7.14-12.46-10.97-20.03-2.14-4.23-8.92-9.71-10.19-13.81-.39-1.27.23-1.99,1.47-1.47,1.9.8,5.48,8.48,8.54,6.56,3.74-4.13,4.05-14.02,1.42-18.52-1.35-2.32-16.43-7.93-20.25-9.79-1.35-.66-2.76.64-2.19-2.25l19.99,3.99c-2.17-4.95-6.44-9.13-5.99-14.99l6.49,7.01-.49-9.01c5.27.41,4.14,7.35,5.5,10.99.94,2.52,4.03,6.68,4.31,8.73.32,2.4-1.63,4.98-1.82,7.77-.84,12.11.73,25.23,5.02,36.5,1.99.28,1.64.18,2.24-1.23,2.43-5.69-1.63-29.21.8-30.72,4.53-1.38,3.43,5.27,4.42,8.98.47,1.75,2.61,3.8,2.58,5.43,0,.46-1.6.07-2.13,2.04s-.35,9.13.25,10.87c.44,1.27,2.21,1.39,2.5,1.94,1,1.85.8,4.32,2.82,5.68l3.49-1.98c1.64,1.76-4.76,16.04-4.85,18.44-.14,3.61,2.6,7.91,2.87,11.55,1.59-.2,2.09-3.65,2.49-5,.93-3.14,2.35-8.41,2.51-11.54.31-6.32-3.52-9.32.13-15.83,1.35-2.4,4.82-3.58,4.86-6.62-4.81.03-7.85,4.84-12.97,2.47-.88-.41-4.2-3.5-2.5-4.49,4.38,2.18,12.28.7,13.46-4.51.31-1.38.54-2.92-1.46-2.46-2.35.92.79,5.24-2,3.98-1.18-.53-8.21-8.4-7.51-8.98l7.04,1.57c2.91-3.61.59-7.46.96-11.57.9-.11,1.28-.15,2.01.48,3.87,3.33,7.25,32.51,12,38.51,1.35.27,2.42-.35,2.81-1.66.77-2.56,1.28-11.81,1.16-14.82-.81-20.03-9.9-20.23-20.5-32.5-10.8-12.51-14.39-28.72-13.48-45.01l7.81,21.68c3.01,5.85,5.67,12.02,9.76,17.24,4.68,5.96,11.33,13.16,19.44,12.56l2.97,6.04,2.01-1.02v-46c0-2.18-6.09-11.88-6.78-15.22-.79-3.83.09-8.34-.21-12.28l7.99,16v-31.5c0-.67,3.16-3.19,4.43-2.48.77.23,2.57,3.91,2.57,4.48v14.5l6.57-13.93,2.43-2.58c4.12-1.73-.61,10.17-1.24,11.77-2.06,5.22-5.48,9.7-6.66,15.34-3.39,16.12,1.22,33.99-.09,50.4,7.33-9.27,11.6-20.97,20.49-28.98,4.88,4.35,1.12,12.05,1.47,18.52.25,4.55,2.27,8.84,2.04,13.46l7.98-5.99c-.86,6.98-4.4,17.23-12.99,16v.98c3.43-.46,1.64,5.13,2.25,8.26,2.41,12.36,13.48,27.29-.75,36.77-5.62-6.91.52-4.8,2.03-6.97,3.88-5.57-6.54-20.55-5.54-27.04-1.87-.44-1.94.63-2.83,1.66-8.66,10.05-12.45,21.51-11.78,34.66.45,8.8,3.29,17.98,4.63,26.67l3.03-11.55c.75-2.68-2.53-5.54-1.94-7.76.53-1.99,3.49-2.12,4.23-3.92,1.19-2.89-.03-6.61,1.15-8.78,1.22-1.64,1.49-.47,2.5.53,2.17,2.17,7.03,9.03.95,9.03,1.92,8.21-3.66,15.59-2.44,23.45,11.33-7.18,22.75-26.37,13.53-38.5,2.88-3.7,6.12.24,8.97,1.51l.02-4h-4.02c.89-8.68,2.66-17.74,3.06-26.46.76-16.61,1.76-45.17-.05-61.05-.42-3.69-2.03-5.28-2.99-8.49,1.34,0,2.76-.26,4.01.48,3.52,2.07,4.12,20.09,3.99,24.52,2.28-.78,2.88-3.56,4.48-5.01,6.83-6.14,8.18,6.11,3.52,11.52-1.48,1.72-1.54,1.79-3.01-.03l1.99-5.48c-6.12,3.78-2.79,7.83-2.95,12.45-.1,2.92-1.84,6.25-1.03,9.54l8.99-13.5,3.66-2.37,2.3,1.47-1.95,6.4,8.51-6.99,4.41,5.63c.65,2.54-13.95,10.14-16.92,7.36,2.09,5.64-5.4,9.71-5.62,13.52-.12,2.17,4.62,3.45,4.2,8.51-.28,3.33-8.41,20.2-7.59,20.97,2.05.37,2.65-.24,4.01-1.48,6.57-6,13.48-20.29,19.99-27.72.9-1.02,6.11-6.73,6.99-5.79l-1.99,11h-4.01c2.32,3.43-1.53,8.61-3.64,11.86-9.46,14.63-28.63,24.34-27.35,44.13,1.66-.47,1.08-3.38,2.12-5.37.77-1.49,2.62-3.31,4.37-3.66,7.06,0-5.06,12.33-3.49,14.03,2.57-.41,9.44-2.8,10.53-5,2.98-6.03-7.72-8.63-5.05-13.99,5.15-4.97,4.18-.39,6.03,2.98l1.49-4c8.65.15-.85,6.25,1.47,10.99l2.22,1.86c7.43-1.41,15.12-1.78,22.55-3.09,5.27-.93,10.15-4.51,16.74-2.76-.03-1.3-3.88-2.62-4.73-2.76-9.32-1.51-24.49,2.77-22.84-12.3l19.94-2.87,1.66,4.91c12.26-.5,9.64-6.01,2.99-12.49-5.97-5.82-15.81-14.1-24.49-10.47l-.53-2.52c.51-1.62,29.05-2.36,32-9-3.43-4.39-8.66-4.41-13.49-5.52-1.55-.35-1.74.66-1.49-1.97,3.76-.84,20.18-5.41,18.88-10.31s-12.79-7.24-16.88-9.2c2.23-3.05,16.63-8.37,11.52-12.53-1.74-1.42-5.98-1.21-5.4-3.33,1.24-4.52,9.44-8.72,10.63-13.38,1.31-5.09-.38-12.89,2.73-18.27,8.33-4.88,6.56,7.08,7.98,12.04,2.2,7.65,9.68,15.15,17.49,17.02l-.4,3-11.52,1.98c-.45,8.15,7.21,9.67,13.96,8.97.54,8.32-16.44,5.35-17.86,9.66-2.47,7.49,13.8,13.94,19.86,12.34l-15.94,8.47c4.33,7.29,13.69,5.12,20.93,4.52.17,6.32-7.07,8.75-9.56,13.91l2.56,7.08c-3.21-.02-5.22-2.44-6.49-4.99-2.55,2.52-5.85,4.93-5.49,8.99l3.98-3.99c-2.92,5.6,5.62,13.88,5.93,15.63.28,1.56-2.5,2.43-1.92,4.36l7.44-2.95,2.05,3.93c3.84-6.19,21.28,4.2,18.5,7.02-6.6-2.36-14.75-5.42-20.97-.49,5.43,5.8,13.57,7.56,20.97,4.5,2.13,2-12.4,8.17-13.37,8.92-1.17.92-.52,1.89-.63,3.07,10.68,1.27,31.26-7,28.99,11-2.15-.24-1.37-2.87-2.24-3.75-1.77-1.8-17.68-1.54-18.75-.24-3.06,3.71,11.93,7.2,12.87,10.63,1.29,4.72-12.57,2.92-5.88,9.36l1.49-2.99,5.51,3.98.5-4.99c5.25,6.42,14.55,7.04,21.93,4.11l-.43-11.11-1.96.48v8.06s-11.02,1.45-11.02,1.45c.91-5.05,5.42-6.53,6.55-11.94,2.86-13.62-2.96-20.93-8.55-32.05h7.99c.76-2.51.47-16,2.51-15.99,8.12,4.84,11.86,15.21,22.16,15.6,7.2.27,5.89-4.63,6.84-4.63,1.33,1.82,1.86,4.58,4.88,3.95l4.12-7.93c2.02,1.48,1.1,4.1,2.02,5.98,1.47,3.01,10.74,3.85,14.48,5.52,4.31,1.93,7.64,7.11,12.77,4.84,9.67-13.77-2.65-19.67-15.42-20.24-5.86-.27-10.53,2.99-15.36-2.58-.85-.98-11.28-16.25-11.75-17.24-1.7-3.52-.61-6.53-1.46-9.54-1.09-3.88-5.37-10.41-4.83-14.16,10.77-3.6,20.51-7.05,32.06-4.58-1.21-7.26-10.59-10.77-12.52-17.96-1.05-3.89-.13-11.91,1.34-15.65s9.72-3.32,13.42-4.65c2.82-1.02,9.4-9.99,10.97-13.03,10.59-20.38-7.5-16.43-14.17-26.46-5.73-8.61-2.8-15.28,5.63-20.08,4.29-2.44,13.91-3.13,16.41-6.58,2.72-3.77-.88-8.76.05-12.94,1.07-3.09,11.43-2.6,13.78-6.24,3.76-5.84-2.31-10.12-1.7-14.67.66-5,6.2-7.16,8.81-10.73h7ZM460.14,48c-3.86-4.37-10.65,22.7-5.49,24.99l5.49-24.99ZM1141.07,66c-2.02-.87-4.28,4.91-4.56,5.98-1.16,4.4,2.15,6.31,3.93.11.53-1.86.5-4.14.63-6.09ZM469.14,71.01c-2.31-2.26-10.75,8.7-11.8,10.69-2.4,4.57-2.78,8.27-3.19,13.29,2.08.47,2.28-1.09,3.22-2.27,1.87-2.35,13.53-20,11.77-21.72ZM1138.08,113.99c1.86.44,1.94-.63,2.83-1.66,3.19-3.7,7.44-11.18,9.19-15.81,1.18-3.12,7.15-25.24,2.49-25.5l-16.52,9.68,2.02,33.29ZM515.13,84c-4.84-1.04-15.54,8.63-12.86,12.86,3.3,5.2,16.19-7.16,12.86-12.86ZM499.14,87.01l-8.84.16c-6.25,11.6-12.32,23.12-16.15,35.83,1.06,1.14,9.97-8.3,11.02-9.47,7.19-7.99,12.34-15.64,13.97-26.52ZM1155.09,96.01c-1.05,4.73-3.54,9.03-4.83,13.69-.23.84-2.09,2.86.33,3.3,3.83.69,5.38-10.94,5.52-13.47.06-1.09.65-3.78-1.02-3.52ZM433.13,98.01c-2.54-.81-2.81,2.48-2.99,4.48-.67,7.54.54,31.37,3.47,37.55,2.79,5.9,8.19,11.16,12.53,15.96-.85-19.86-2.92-40.47-13.01-57.99ZM1185.83,101.24c-1-1.01-3.33-1.26-4.76-1.24.66,5.91-5.59,11.23-5.96,16.62-.16,2.25,2.26,11.61,3.45,13.39,1.56,2.34,3.78-2.9,5.5-3.01l-.98,7c12.98-6.32,11.27-19.75,6.49-30.98l-2.49,1.98c-.18-1.15-.45-2.95-1.25-3.76ZM507.13,104c-.93-.99-15.02,8.17-12.99,9.99,5.27-.51,13.25-3.61,12.99-9.99ZM1089.09,119c-.71,12.89,9.68,4.24,8.59-3.01-.38-2.51-2.33-6.97-4.11-8.99-2.86,4.86-1.31,10.81-.5,15.99l-3.98-3.99ZM1153.09,146c2.7-11.24,14.8-19.61,11.52-32.04-.88-1.29-1.44-.77-2.57-.57-5.54.99-26.77,17.45-27.95,23.13l-.02,1.47c5.63-.89,3.68,7.06,4.01,11l5.98-.99-.99,4.99,5.99.5c-6.4,4.7-12.59,11.68-20.83,12.68l-2.16,7.81c3.03,2.39,22.9-19.48,26-16.98-1.6,4.6-6.46,7.96-8.05,12.44-2.76,7.82,1.42,17.74,3.06,25.54l4.98-15.99,2.51,17.01c2.06-3.32,2.72-7.55,5.5-10.51,2.13-2.27,5.4-2.73,6.47-4.53,1.57-2.66,2.04-10.35,3.03-13.97,2.32-8.53,4.98-17.01,7.52-25.48-.39-1.28-2.01-.15-2.83.17-14.52,5.56-16.13,21.27-20.19,34.32-3.41,2.53-3.19-8.06-3-9.52.53-4.22,4.05-6.96,4.01-9.89-.05-3.76-3.18-3.58-3.84-5.21-1.84-4.53,2.73-3,5.39-5.35,1.65-1.46,3.26-5.44,4.47-7.52l-8,7.49ZM703.11,119c-1.56-1.79-6.81,7.17-7.41,8.08-2.27,3.45-5.3,8.27-7.1,11.9-7.18,14.42-8.38,30.06-8.47,46.02,8.09-8.37,19.45-19.21,14.98-31.99,8.12-.64,6.85-9.23,4.99-15.02l-3.98.51c4.13-6.18,8.05-11.45,6.99-19.5ZM1165.07,141.99c8.97-3.22,13.01-10.25,7.41-18.9-1.86-2.87-5.23-4.22-3.67-.39.75,1.85,3.16,1.51,3.1,3.55-.15,4.68-5.15,11.25-6.83,15.73ZM1086.08,175c-3.83-18.29-6.78-39.67-20.98-52.99,1.02,3.9,2.25,7.97,3.81,11.68,2.61,6.2,11.27,17.41,11.22,22.8-.02,1.98-.09,1.62-2.03,1.52.38-2.65-7.57-15.49-10.01-12.99-.19,13.01,5.66,25.18,17.99,29.99ZM1097.08,149v18.5c0,2.47,4.47,17.41,5.81,20.19.96,2,3.14,6.27,5.68,6.32l2.8-17.22,4.7-9.79c.16,8.77-2.73,17.19-3.71,25.79-.12,1.1-1.16,3.42.7,3.2,2.21-8.55,6.61-18.8,6.92-27.61.05-1.42-1.34-4.96-.9-5.38.27-.25,2.35.65,3.05-.64.74-1.37,2.92-14.82,2.86-16.77-.31-10.5-13.51-19.11-22.31-22.68-3.73,7.75-10.27,10.61-16.45,15.77l4.86,20.31,5.99-9.99ZM1183.08,184c-1.33-1.79,5.44-14.95,6.45-18.04,1.9-5.82,6.54-23.18,5.55-28.45-1.27-6.72-9.47.66-8.01,5.49l-2.01-2.99-2.78,1.7-2.27,42.72c1.97.86,6.95,5.06,7.04.08.04-2.26-3.85-.33-3.97-.49ZM402.84,146.12c-3.08.84-4.26,3.96-1.7,6.4,5.25,4.99,7.99-8.12,1.7-6.4ZM445.14,167.99c1.72-1.82-12.93-27.56-17-14,7.33,1.22,8.52,12.3,17,14ZM725.22,164.89l4.46-.83.43-7.06c-2,1.23-3.26,3.33-5.96,3.04l1.07,4.86ZM403.91,159.24c-2.3-2.31-15.22-1.38-18.75-.22-.99,4.2,4.42.32,4.99.99-.1,7.73,4.31,15.63,9.52,20.99,2.16.42,1.53-1.01,1.53-2.52,0-5.8-5.49-9.6-5.04-15.47,3.78-.94,3.78,3.45,6.49,4.98,2.92-1.52,3.38-6.62,1.26-8.74ZM380.91,160.25c-7.62-4.98-9.34,2.46-13.5,3.49-2.14.53-4.38.03-6.5.52-2.78.64-10.98,3.64-12.8,2.32-1.31-.95-.56-4.55-3.28-4.44-2.42.1-3.47,1.9-2.53,4.2s9.91,4.65,12.63,5.38c4.43,1.18,19.32,2.65,21.23,3.77,2.25,1.32.79,7.15,5.98,6.53-6.01,6.89,7.99,14.25,12.99,17.99-.98-3.21,1.89-3.07,2.52-3.99,1.66-2.42-5.24-10.5-7.16-10.87s-4.55,3.85-6.3.27l1.89-4.89,6.05-.02c-2.4-4.15-7.02-1.02-9.99-4.01-.16-.38,5.82-2.32,4.99-5.97l-1.5-1.52c-.46,5.01-10.13-2.33-4.99-2.03,1.35.08,2.3.53,3.48,1.03l-3.23-7.75ZM668.12,160.01c3.14,2.5.8,16.93,3.5,16.97,2.3-1.39,1.1-2.59,1.17-4.2.21-4.41.96-11.46-4.67-12.77ZM427.04,164.09c-5.13-.53-13.97-5.29-17.95-.38-.6.74-3.84,7.92-3.94,8.89-.61,6.13,13.8,26.48,16.49,33.42l2.51-.59c.87-6.48-1.42-10.94-5.05-15.93l2.03-2.98c-1.7-2.63-4.07-2.76-6.99-2.52l.08-5.92,4.92-.58c-2.08-2.7-6.44-4.53-5.99-8.5,4.55-.86,6.79,3.54,10.45,4.99,2.75-2.73,4.34-5.94,3.44-9.91ZM1069.07,206c6.34-12.99.52-22.54-9.51-30.97-2.23-1.87-10.74-9.27-12.75-5.78-3.78,6.56-6.4,19.15-14.77,22.21-6.34,2.32-8.51-2.86-13.9-4.01s-16.29-1.11-17.07,6.12c-.15,1.41,4.95,3.85,6.34,4.61,17.63,9.64,36.42,17.22,42-8.42.32-1.45-.18-8.71,2.15-7.75,8.61,5.6,10.43,15.25,15.27,22.7.63.96-.11,1.8,2.22,1.28ZM433.15,174v40.5c0,.99,1.58,6.54,2.15,7.85.84,1.94,11.36,14.61,12.35,14.63,2.5-2.64,1.54-7.91,1.55-11.53.05-11.62-2.04-37.95-9.05-46.95-.91-1.17-5.49-6.06-7-4.5ZM1086.08,196c2.44-2.83-10.46-20.39-14.98-20.99-1.76,2.23,9.36,21.72,14.98,20.99ZM1136.06,176c-2.55-1.87-11.21,11.18-12.16,13.32-7.27,16.28-1.57,37.17,2.19,53.67l6.98-20-1.98-.47,10.96-17.09-5.99-29.43ZM1231.57,252c-6.98-1.99-23.41,1.48-31.5,0-1.18-3.7,3.18-3.65,3.87-5.67,2.8-8.12-11.15-8.87-12.7-15.67-.08-3.04,12.14-8.59,15.15-9.83,7-2.88,15.21-3.47,20.67-7.83h-14.5c-1.28,0-10.36-2.85-11.08-3.98-.81-1.72,2.9-7.3,4.01-8.09,2.37-1.69,5.71-.52,8.62-1.38,2.43-.72,4.63-4.35,7.91-3.52.12,4.64,5.22,7.11,7.84,2.34-2.29-8.93-11.86-20.41-22.02-19.13-8.28,1.04-28.61,14.11-28.77,23.76,2.1,2.18,20.51-10.7,23.74-11.75.78-.25,3.28-.76,3.27.27-2.57,15.77-21.44,10.99-30,21-.42,2.25.98,1.39,2.47,1.49,2.79.18,7.21-1.16,8.52,1.98-3.23,2-15.03,3.27-15.85,6.7l6.86,56.32c5.66-3.82,12.24-12.67,18.44-15.05,9.17-3.52,32.4-2.77,38.56-6.43,1.94-1.15-3.17-5.42-3.52-5.52ZM673.11,190c1.31-3.34.26-7.93-2.98-10-.85,3.45-.51,7.89,2.98,10ZM655.06,183.06c-4.62-3.16-7.43,10.04-2.33,10.89,4.16.69,5.18-8.94,2.33-10.89ZM407.14,192.99c.6-.65-1.75-9.93-4.99-8.99-.6.66,1.41,10.15,4.99,8.99ZM1091.06,185.01l-2,.51c1.62,7.95,3.58,16.55,7.14,23.86,1.14,2.34,11.92,19.68,14.87,16.62-1.52-15.53-12.34-28.02-20.01-40.99ZM1171.07,203.5c.85-5.11-.62-12.14,0-17.5l-12.88,21.62c-1.64,4.5-4.35,9.48-2.63,14.37,6.33-3.35,14.29-11.24,15.5-18.49ZM496.14,189.99c-.96-6.49-7.66-1.01-9.99,2l9.99-2ZM639.05,197.94c1.83-3.93.95-8.09-2.42-10.92-2.81,2.6-1.48,7.24-.59,10.39l3.01.52ZM383.15,200.01c-3.07-.93-10.08-5.07-12.51-1.03-4.01,6.66,11.62,7.4,12.51,1.03ZM667.14,209l3.59,5.95,5.4-2.49c-3.23-5.22-8.86-8.99-10.01-15.47-2.51-1.89-7.92,18.38-8.33,20.16-1.3,5.63-2.35,12.05-2.65,17.84,2.61.49,1.76-.5,2.45-1.99,1.4-3,3.25-8.68,4.09-11.95.67-2.63.02-5.28.59-7.46.44-1.66,5.31-.75,4.87-4.59ZM660.12,200.01l-4.8,5.7c-3.23,5.92-8.56,17.47-3.69,23.29l8.49-28.99ZM1087.08,211c.76-3.56-6.5-13.36-10.06-10.58-3.63,6.26.47,14.38,7.05,16.58l.11-5.94,2.89-.06ZM1294.06,206.01c-11.13-3.04-11.93-7.77-22,.48-8.24,6.75-10.54,12.05,3.23,8.23l18.77-8.71ZM406.29,206.86c-.6-.69,0-2.78-.15-3.86-11.05,6.21,1.16,14.04,8.45,15.99l1.41-2.3c-1.32-3.41-3.53-6.41-6.35-8.72-1.02-.83-3.07-.76-3.36-1.1ZM313.16,204l-7.05,1.67c.51,13.7,8.38,10.82,7.05-1.67ZM182.17,219.99c.34-4.76-3.28-6.64-6.69-8.8-2.14-1.35-13.12-7.61-14.25-3.6-1.83,6.47,19.72,13.58,20.95,12.39ZM283.89,208.13c-4.25.62-12.09,11.44-3.86,12.36s11.32-13.45,3.86-12.36ZM358.49,222.64c6.34,2.74,9.81,1.57,15.72,2.8,8.13,1.69,19.41,9.54,28.73,10.36,16.46,1.45-.34-19.79-8.81-18.41-5.19.84-12.31,8.36-17.49,2.61-1.11-2.63,7.01-1.95,9.35-2.66,7.16-2.18,5.94-7.6-.98-8.69-5.86-.92-16.25,4.71-23.37,5.33-7.25.63-28.36-5.31-26.53,6.48l1.69,2.45c4.79.29,16.59-4.27,20.62-1.96.64.37.82,1.57,1.07,1.68ZM1147.07,210.01c-2.85-2.84-10.76,11.53-7.98,14.99l5.53-7.95,2.45-7.04ZM498.84,215.11c-7.18,1.88-6.38,16.25-2.19,20.88,2.5.59,7.78-10.73,7.98-12.87.26-2.66-2.38-8.91-5.79-8.02ZM1095.07,224c.9-1.02-4.37-10.67-7.98-8.99.35,4.5,4.62,6.9,7.98,8.99ZM666.4,225.28c-2.56,2.57-4.41,14.62-3.6,18.46,1.56,7.34,7.49,14.3,13.8,18.25,1.69-.39,3.38-11.29,3.55-13.46.41-5.24.06-28.83-4.98-31.02l-4.05.49c-.1,1.89,4.65.64,3.99,3.47-.38,1.63-6.93,2-8.71,3.79ZM751.12,222.01l-12.99-2.02c.57,5.67-6.25,9.98-7.54,14.97-.68,2.62.02,5.49-.61,7.39-.46,1.38-2.71,1.7-3.67,3.33-1.22,2.08-1.22,6-2.42,8.58-2.22,4.8-8.3,9.25-11.76,13.24,4.21.4,5.93-6.59,10.99-5.51l1,6c-4.38-2.8-8.03,2.81-7.98,7,3.98-1.64,9.36-4.85,9.67-9.63.12-1.91-2.16-7.41.83-8.36,4.61-1.46,3.23,5.49,3.49,7.51.18,1.41-.54,1.7,1.51,1.5l4.48-3.53-2.99-1.49c.71-7.41,8.18.94,9,0v-7s5,0,5,0l-2.01-4.99c-4.77,1.29-3.68,6.83-9.74,7.82-4.94.8-4.64-2.19-5.49-2.63-.78-.41-3.7,1.82-3.75-1.67l25.04-18.24c2.07-3.28-1.5-4.82-1.04-5.27l3.59-.96c.32-3.33-.48-5.24-3.26-2.71-3.08,2.8-9.15,12.01-13.65,10.56-5.35-1.73.16-10.96,4.32-9.4l-2.99,4.49c1.63,1.24,11.55-6.84,13-8.98ZM1086.08,250.99c-2.56-6.39-4.77-13.3-8.2-19.29-.67-1.17-9.01-13.87-10.8-11.69-.35,6.09-2.27,8.83.79,14.7s11.12,9.99,11.2,16.29h7ZM419.91,222.24c-.7-.72-3.17-1.44-4.14-1.17-5.57,1.54,5.02,12.47,6.37,10.93-.1-2.2-.9-8.38-2.23-9.75ZM717.06,257.94c.17-.15.14-2.77.56-3.91,2.28-6.28,6.35-12.64,8.02-19.01,4.14-15.78-3.62-9.89-9.55-1.55s-10.7,19.61-9.97,29.52c2.96.31,4-3.6,6.01-4.48,1.64-.72,4.62-.29,4.92-.57ZM1271.06,225.01c-.45-.4-10.76,1.34-10.99,3.99,3.63-.05,10.37,1.16,10.99-3.99ZM1094.08,243.01c1.99,4.33,12.76,10.34,16.51,7,4.49-3.98-6.84-15.44-10.81-17.22l-16.71-6.78,9.01,15.98,2.48-2.97,11.5,8.49-11.99-4.5ZM1169.07,226c-5.05-.81-5.37,3.84-8.48,6.01-5.28,3.68-12.27,6.28-17.05,11.95l-14.01,15.99c-1.19,21.73.36,43.47,1.57,65.05,7.84-7.66,12.2-18.05,18.57-26.91,2.32-3.23,7.79-7.97,9.3-10.73,1.37-2.5.1-7.67,1.13-8.35,2.52-1.69,4.88,2.49,4,5,4.18-3.54,4.39-12.1,4.98-17.51.79-7.27,2.08-19.04,2.1-26,0-4.56-1.72-9.88-2.09-14.49ZM1450.03,230c-4.86.8-6.67,11.57-5.95,15.45.35,1.89,3.58,4.38.99,6.08-1.78,1.17-8.51.23-11.42.58-4.3.51-6.8,2.33-10.39,3.63-1.26.46-3.96.05-4.19.29-.32.34.3,2.3-.06,3.2-.37.95-1.77.76-1.94,1.47-.59,2.43-.05,15.56,2.52,16.29,5.12-.81,9.62-8.09,9.46-12.99,5.28,1.25,5.16,3.11,10.33-.17,2.77-1.76,12.23-12.55,13.5-15.48,3.03-6.95-1.39-11.79-2.85-18.34ZM310.17,245c3.76-2.62,4.05-8.97.49-11.98-2.5-.05-1.51,10.1-.49,11.98ZM692.13,248c1.79,2.12,12.09-12.83,10.98-13.99-6.83,1.67-11.56,6.66-10.98,13.99ZM191.05,256.87c-2.44,1.42-4.67-2.73-6.5-3.74-2.3-1.27-4.84-1.13-7.33-2.67-5.89-3.62-8.29-14.72-16.03-15.46-1.65,1.72,3.83,17.11,4.02,20.49s-5.4-1.51-4.02,1.99c3.56,9.01,19.93,12.4,28.54,12.55,4.68.08,16.16-3.75,19.47-1.56l.83,2.86c-.02,2.64-12.92,7.74-10.85,9.66,10.31,1.54,19.4,4.6,21.72,15.77.27,1.29-.68,2.82-.3,4.27.89,3.4,19.1,19.68,21.55,17.95.76-2.89,2.11-8.27,4.66-9.93,2.31-1.5,6.13,1.41,8.8-2.12,2.82-3.74,1.64-17.52.27-22.16-1.59-5.39-14.37-21.56-13.72-24.26.88-3.67,7.31,1.35,8.55,2.43,2.42,2.11,3.32,6.19,7.44,6.05,1.78-6.45,1.29-13.46,0-20l-13.47,7.04c-2.33-8.54-15.78-6.61-23.01-9.04l-9.22,7.87c-3.56.92-10.78-7.78-18.82-1.9-1.57,1.15-2.39,3.78-2.6,3.89ZM785.11,243.01c-2.26-2.38-17.19.06-21.31-1.2-2.74-.84-3.47-6.83-7.15-5.8-1.52.42-1.75,4.68-2.66,6.36-1.23,2.28-5.41,3.58-4.84,5.09,1.04,1.08,2.22,2.9,3.67,3.33,6.84,2.04,22.78-6.12,30.84-5.76l1.45-2.02ZM1282.75,236.15c-3.3.98-4.45,5.99-1.2,7.8,5.27-1.29,8.11-9.85,1.2-7.8ZM1300.07,244l4.91-2.6c-.36-3.3-3.41-6.56-5.83-2.75l.93,5.35ZM1076.08,249.99c-2.88-3.88-7.75-8.55-12.33-10.18-1.52-.54-1.21-1.16-2.66.71-.65,3.31,11.78,9.53,14.99,9.47ZM446.16,260c1.17-.18,1.85-1.1,1.81-2.29-.1-3.8-11.95-20.37-14.83-17.7l13.02,19.99ZM285.17,247.99l-1.52-6.99c-2.56-1.24-2.92,6.1-1.53,8.3.61.97,2.84,1.37,3.05,2.2-8.04,8.05,2.9,17.03,0,3.5,3.8.25,1.16,3.27,6.48,3.06,9.54-.38,4.37-6.43-.47-9.58l3.98-2.47-5.86-.13-1.12-1.87c-.6,1.83-.26,4.72-3.01,3.99ZM273.15,243h-2.97c-1.39,4.46-4.45,31.19-2.01,33,3.89-.28,5.5-7.51,5.88-10.61s.38-21.34-.91-22.39ZM424.15,247c-4.88-1.46-8.07-4.15-13.5-4.08-4.35.06-22.5,3.93-26.22,5.86-5.2,2.69.19,4.66,3.37,6.07,4.64,2.06,8.21,2.62,13.35,2.16-3.68,3.95-14.19,5.05-19.05,3.55-2.61-.81-3.82-3.94-7.51-4.51-4.23-.66-7.7,1.51-11.69.75-3.47-.67-6.93-4.86-10.47-5.57-4.29-.87-8.6.64-12.77-2.24-3.62-.57.09,7.5,1.04,8.97,7.26,11.15,20.21,6.73,30.45,3.06-1.21,2.95-6.36,4.8-5.87,8.25,7.02,10.42,23.13,9.6,34.35,10.75,14.49,1.49,5.73,3.67,5.44,10.51-.13,3.11,1.55,6.24,3.59,8.47,2.65.67.99-2.52,1.51-2.97,1.94-1.7,7.21,2.77,7.98,4.97l-4.99.5c3.2,3.46,5.66,7.69,8.7,11.23.62.72-.05,1.87,2.29,1.27v-67ZM1060.35,250.75c-1.63-1.68-.58-3.24-.71-4.66-.53-5.44-6.51,1.09-4.07,5.92,1.39,2.74,7.76,2.43,10,5.01,2.83,3.25,3.09,8.96,8.02,12.97,4.6,3.74,5.62,1.62,9.5,2.48,2.59.58,4.44,2.32,6.99,2.52.45-1.73-.72-2-1.49-3-2.28-2.97-8.88-8.52-12.03-10.97-3.69-2.88-14.26-8.26-16.22-10.27ZM1259.38,248.3c-6.47,7.92,11.61,7.95,11.27-.81-.25-6.48-8.85-2.16-11.27.81ZM1292.05,247c-4.07,5-8.1,4.56-13.22,6.27-3.89,1.3-5.42,4.08-.3,2.72,1.67-.44,16.15-6.02,13.52-8.99ZM702.12,252l-5.84,5.65c-4.38,8.06-6.08,17.19-6.14,26.34,6.96-8.9,11.77-20.64,11.98-31.99ZM1461.04,252c-1.13-1.24-6.78,5.48-8.06,6.43-2.89,2.16-8.52,2.92-8.93,7.55l13.01.53,3.98-14.51ZM1116.07,292c-.33-9.04,2.86-21.13-.74-29.75-2.06-4.95-14.66-6.76-19.24-9.25l19.98,39ZM447.14,496c1.98-8.97,1.48-17.58,1.96-26.54,2.54-47.05.82-94.86,0-141.92-.3-17.28.58-34.67-.32-51.9-3.85-6.8-10.94-12.27-16.63-17.65l1.97,217.52c.45,3.67,5.36,12.03,7.6,15.4.63.95,4.04,6.66,5.41,5.08ZM1100.08,277.99c1.81-1.86-12.3-19.36-15.98-19.99-.08,4.93,4.9,7.67,7.45,11.04,2.33,3.07,2.42,8.77,8.53,8.96ZM826.11,263.99c3.52,1,7.56,2.42,9.79-1.47l-2.77-3.51c.36,4.26-7.23-.38-7.01,4.98ZM1372.05,288.99c-.45-3.91-4.05-10.03-7.98-11.51-8.77-3.32-16.45-2.89-25.22-4.78-3.02-.65-16.94-7.13-17.79-3.19,1.26,3.94,8.21,5.83,11.99,6.99,5.48,1.68,12.14.2,13.62,6.56l7.38-.06-2.03,3.5c3.73,7.45,3.93,1.2,5.65.64,1.33-.43,2.97-.08,4.38-.13,1.09,2.6-2.03,1.79-2.05,2.51-.09,3.94,4.82,5.14,7.57,6.48l-1.5-4.47,5.98-2.52ZM1261.06,270c-10.12-.63-6.36,12.43.28,15.26,4.9,2.09,13.34-2.04,15.72-6.77l-15.88-2.59-.11-5.9ZM762.79,279.32c-3.39-2.94-8.34-1.95-12.49-3.01s-7.1-5.03-11.59-4.3c-23.45,10.88-51.29,18.54-50.59,49.97,1.3.84,11.34-7.98,13.01-9.48,4.56-4.09,12.93-11.89,16.51-16.49,4.56-5.85,7.11-13.41,13.99-18.02,2.06-.43,1.7.99,1.44,2.44-1.28,7.35-12.61,11.55-11.96,19.55.79.79,18.01-1.96,19.36-2.91.94-.66.78-2.64,1.6-3.59,5.75-6.65,17.03-4.96,22.86-10.99-.8-.86-1.36-2.52-2.14-3.19ZM1745.01,285.99c1.15-.99-8.48-13.92-11.92-13.52-3.43-.62-9.69,5.65-7.43,9.27,1.49,3.48,15.43,4.15,19.34,4.24ZM1289.06,274c-3.97.4-7.33-2.75-9.98,1.5,2.14,3.5,5.72,2.42,8.7.73,1.12-.63,1.71.07,1.28-2.23ZM843.9,277.2c-5.11-.51-12.78-4.98-15.84,1.3.46,4.82,6.72,2.2,7.02,2.49.13.13-.02,2.01.58,2.9,2.09,3.06,6.84,5.2,10.43,6.1.38-4.53-.18-8.72-2.2-12.79ZM1074.8,280.21c-7.57,1.69-32.71,25.87-12.21,25.87,6.85,0,8.07-5.6,13.24-3.33l34.76,30.22c2.11-1.34.86-1.67.81-2.76-.38-8.18-4.67-27.21-8.86-34.17-4.54-7.56-18.63-17.87-27.74-15.84ZM1180.05,290c-3.02-2.09-3.56,16.16-2.84,18.36l1.5,1.5c5.6,1.84,21.08-4.26,26.39-7.32,3.39-1.95,7.53-6.51,10.44-7.64,2.73-1.06,4.76.22,8.42-1.49,3.45-1.61,11.87-9.06,6.11-11.92-5.53-2.75-5.42,4.02-6.96,5.11-1.32.94-3.7-.71-6.03-.18-3.48.79-6.3,5.04-9.51,6.57-3.5-7.54-5.67-7.68-11.48-1.98v-8c-7.15-.34-11.16,4.58-14.51,9.98l-1.52-2.98ZM1429.65,312.64c1.68-4.16,3.97-15.7,3.19-19.89s-8.52-10.75-12.78-11.75c-2.24,4.96-1.39,10.33-2.29,15.23-1.4,7.59-4.12,15.11-5.46,22.54-2.97,16.51-3.63,33.47-3.26,50.22l8.52-30.96c3.72-14.78,1.39-32.09,8.21-45.8,1.18-2.37,1.38-1.95,1.28.28-.23,5.05-2.98,11.56-2.96,16.14.01,2.75,2,4.3,2,6.86,0,2.37-1.77,3.98-2.02,6.05-.4,3.42.15,7.01-.04,10.44l3.74-11.75c-.75-4.1,1.13-5.82,1.86-7.6ZM868.11,296c2.53.73,2.71,8.34,5.99,4.48,1.18-5.76-15.14-15.68-17.77-12.26-1.06,1.54-.65,5.52-1.43,6.57-1.03,1.4-6.24.41-6.8,3.19,7.29-.82,11.76,8.36,14.21,14.3,1.58,3.82.54,10.79,6.29,10.81,11.47.03-3.87-21.15-.49-27.09ZM293.37,298.77c1.39,1.91,5.94,1.36,6.66-1.48.53-2.1-2.88-7.47-4.38-9.29-3.21-.77-3.47,9.13-2.28,10.77ZM269.17,314c1.92-.35,1.65-2.09,2.03-3.46,1.68-5.98,1.19-12.51-.06-18.54-1.29-.28-1.61,1.87-1.74,2.73-.95,6.46-.92,12.83-.24,19.26ZM1167.07,511.99l.05-77.54c-4.15-19,.42-38.34,1-57.92.84-28.1-.29-56.47-.54-84.55-15.21,17.79-23.53,40.14-34.27,60.74-.01,43.58-2.95,87.25-.18,130.73.49,7.7.99,11.75,2.01,18.99.61,4.37-.56,10-.04,14.55l2.98-3.99.02,5.99,3.98-2.99c.61.79-.63,7.04,2.99,6,.51-.47,3.7-13.73,6.01-10.99.3,5.4-2.39,10.28-2.98,15.51-.12,1.03-.77,4.68.98,4.48.04-4.06,1.3-8.32,4.51-10.97l1.49,5.45,1.99.52,7.03-18.98c2.65.45-1.09,6.04,2.98,4.99ZM1454.05,320.99c1.71.35,2.51-.88,3.52-1.97,10.21-11.05-10.8-22.37-19.51-25.02-1.23,5.56-2.79,11.01-3.89,16.62-.52,2.65.14,5.47-.55,8.45-.99,4.29-6.05,8.73-5.56,13.93,6.29-3.45,23.72-21.69,29.46-22.04,1.56-.09,1.76-.11,1.54,1.54-.44,3.29-4.05,5.39-5.01,8.49ZM285.16,300.99l-3.98-5.99-5.01,9.99c3.78.77,3.06-1.21,4.13-3.86l4.86-.14ZM226.17,325.01c15.05-2.61,7.18-8.78-2.02-12.49s-18.46-3.22-26.96-7.04c-6.07-2.73-13.33-12.71-20.57-8.53-4.18,2.41-8.06,13.86-5.95,18.07,1.47,2.94,16.31,5.44,20.27,6.72,12.42,4.01,24.94,10.92,38.23,8.26l-2.99-4.99ZM861.1,322c1.53-1.77-5.16-19.45-8.98-20.99,0,4.65,2.73,8.93,4.32,13.26.92,2.52-.63,7.41,4.66,7.74ZM365.65,309c-6.54-1.09-15.64.8-22.5,0,3.19,6.67,31.22,7.4,32.94,10.07l.05,2.92c-3.76.65-9.67.95-10.92,5.38.28,1.6,11.47,10.63,13.92,9.14l-5.99-6.49c3.69.11,7.32-.52,10.96.57,4.76,1.42,3.02,5.61,4.96,8,2.17,2.68,8.78.97,12.07,1.41l-8.98-5.5c-.43-2.08,1.03-1.65,2.5-1.51,6.41.64,18.47,9.62,21.94,15.07,3.8,5.96.7,8.36-5.44,5.96.15,3.84,5.01,5.56,2.06,9.57-4.45,6.07-13.17-1.27-16.49-.47-2.52.61-1.14,5.46-1.71,7.27-.65,2.04-11.66,3.27-13.88,2.14-3.02-1.54-1.14-7.72-5.48-8.51-1.92-.35-17.53.35-17.48,2.5,6.66,8.12,22.3-.56,22.02,12.99-.16,7.66-11.23,6.68-12.61,12.48-.86,3.61,5.28,1.02,6.96,1.13,13.79.89,29.17,6.54,41.54,12.47l7.07,8.43v-94c-7.83-3.36-16.31-6.64-14-17-1.19-1.19-15.62,4.72-17.03,6.47-1.12,1.39-1.69,1.65.06,3.01l7.97,3.02c-2.74,1.98-7.35,6.87-10.55,7.46-11.52,2.13-14.43-12.37-23.95-13.95ZM1288.48,307.62c-.58-.67-4.64-5.78-5.42-2.1-.72,3.41,2.89,5.13,6.01,4,2.75-.99-.29-1.55-.59-1.9ZM1257.06,315.99c1.28-1.22-6.02-10.49-8.99-8.99-1.27,5.91,3.91,8.57,8.99,8.99ZM1330.05,311.99c-.76-5.31-6.96-5.3-10.99-4.99-.86,5.43,7.21,4.8,10.99,4.99ZM846.37,311.72c-.75-.59-.94-2.58-2.24-3.23-6.22-3.09-7.5,3.29-8.58,3.51-2.36-.87-3.33-2.93-5.84-.91-5.78,4.09,6.32,8.44,10.79,7.89,3.42-.42,5.07-3.7,8.1-4.75l3.48,2.76c.98-4.72-3.58-3.58-5.72-5.28ZM1399.04,362c1.6-9.42,5.57-20.66,2.5-29.99s-18.49-22.03-28.48-24v4.99s-5-1.99-5-1.99c-1.25,17.06-3.83-3.11-12-2l6.98,7.52c.86,3.79-12.12,3.93-14.52,3.55-2.2-.34-1.81-3.1-5.18-3.88-5.15-1.19-9.08,1.67-4.26,5.27,2.49,1.86,7.22,1.6,11.27,3.73,5.5,2.88,8.45,10.27,12.38,10.66,2.97.29,1.71-4.67,3.82-5.84,8.15,4.91,6.74,13.61,13,18.97,1.41-4.07.46-8.35.46-12.44,0-1.16-.68-3.79,1.02-3.54,2.08,8.37,6.74,16.81,11.6,23.91,1.72,2.51,2.77,5.71,6.4,5.09ZM784.11,502v-52.5c-5.94-3.6-17.15-13.21-24.33-8.58-2,1.29-1.6,6.78-7.15,7.13-4.24.27-1.53-1.95-3.11-3.14-5.63-4.23-14.63.98-12.37-14.33,2.12-14.39,26.25.17,22.97-16.59-7.04-1.31-18.16,5.75-17-6-7.33-1.8-5.04,4.52-8.6,6.9-1.97,1.32-9.5,2.7-11.74,2.15-5.56-14.07-10.09-18.23,4.65-27.24,9.57-5.86,21.47-8.27,31.69-12.82,2.13-2.83-10.85-6.36-12.37-7.11-1.42-.7-4.63-2.43-5.56-3.44-2.16-2.36-1.85-6.18-3-6.99-2.42-1.72-13.44,1.15-17.64-3.36-7.01-7.54,3.08-10.83,4.85-15.37,1.01-2.6-1.62-4.82,5.22-5.8,2.36.19,2.05,3.13,4.45,3.7,1.82.44,7.36-.46,8.05-2.13v-1.47c-9.11-2.12,4.35-8.66,6-7.02l-.99,6.99,14.99-7.5-2.1-2.95c0-6.51,16.08-10.09,21.13-13.05,1.3-.76,2.52.18,1.96-2.49l-27.05,4.44c-4.44,3.1,6.6,16-12.21,9.34-7.82-2.77-7.98-5.17-13.04-9.46-10.07-8.54-23.83,6.59-30.2,13.67-4.26,4.74-10.92,12.09-11.54,18.46-2.83,29.34.61,67.08,1.09,97.01.24,14.57-1.88,35.17.21,48.8.14.88.43,3.01,1.74,2.74.11-3.37-.2-8.9,3-10.99.45,5.01-.24,9.84-.71,14.79-.1,1.1-1.18,3.4.7,3.2,2.99-8.96,8.12-20.15,13.61-27.9,1.07-1.51,2.26-4.55,4.39-4.09-7.16,19.19-14.58,38.45-16.98,58.99,8.34-11.02,10.45-26.06,17.49-37.99l.37,7.37-3.38,13.62c8.22-5.28,14.23-13.21,21.49-19.51,3.44-2.98,15.26-13.13,18.53-14.47.46-.19,1.64-.26,1.48.48-16.52,16.63-34.18,33.04-45.99,53.5,3.73.83,5.35-10.78,9-7.98l-2.99,9.99,4.98-4,.94,3.55,4.06.45c-.07-3.82.15-7.67,0-11.49-.11-2.83-2.63-6.2.51-8.49l8.51,17.97c1.96-.5.52-3.86,1.5-5.98.54-1.18,2.05-2.29,3.48-2.01,1,1.15-3.01,9.55,1.99,8.99,2.51-4.89,1.65-8.03.02-12.99,3.34-1.17,4.25,2.95,4.76,5.73.39,2.15-.66,6.38,1.22,7.26l4.02-13.99,1.48,2.99,3-4.98c4.23,3.6,1.53,9.38,2.99,13.97l3.5-10.57c4.31-.98,3.81,1.95,4.89,4.15.55,1.11-.48,1.86,2.1,1.43.49-2.89,1.41-7.22,2.77-9.73.64-1.17-.02-1.69,2.23-1.27.81,1.01-1.4,8.22.99,8.99,1.4-5.64,7.6-3.91,5.02-10.99l3.98.99c1.27-11.49-12.25-12.47-20.61-13.88-2.74-.46-7.89.84-9.37-2.11,11.36-1,21.42,1.57,31.99,4.99ZM659.13,536c10.83,1.1,10.09-12.19,10.71-20.53,1.48-19.69-.07-41.05.24-61.01.57-37.51,1.7-75.34,1.09-113.01-2.98-6.46-8.81-12.01-12.45-18.54-1.19-2.13-.64-6.51-4.09-6.91.25,3.99,5.88,14.63,2.5,17.52-2.97,2.55-12.9.99-17.27,1.73-6.06,1.02-11.8,6.13-19.73,3.77l9.26,4.95c2,1.84,2.32,5.59,1.22,8.03-1.26,2.78-5.19,2.86-6.48,5.01,15.67-2.66,10.93,5.27,16.98,12.52,3.81,4.56,13.49,4.71,12.8,10.74s-7.93,7.54-11.78,11.26c-.32,2.63,3.44,1.24,5.33,2.4,2.8,1.71-1.28,6.67-1.89,10.04-2.16,11.92-1.44,16.74-10.48,26.52-5.9,6.39-16.05,4.57-24.89,10.11-8.13,5.1-5.76,8.53-9.1,11.89-4.85,4.87-6.27-.86-7.96,11.04-1.41,9.91-3.08,27.16-3.1,36.99,0,4.26,1.72,8.31,2.1,12.5l4.76-8.72,1.23-6.28,3.07.6.79,7.96,7.12,3.95c-6.38,3.66-13.89,1.12-12.99,11.49,3.87.2,3.71-4.27,7.99-3v-4.01s4,0,4,0l.99,6,4.02-24c2.02-.26,1.64-.18,2.24,1.25.4.95,3.45,16.45,5.74,14.75,1.39-9.13,5.16-21.36-3.24-28.25-4.06-3.33-9.21-3.28-12.75-6.74,9.25-.66,22.54,2.52,21.51,14l5.6-1.61,3.88-18.4c.32,9.11-.4,18.19,2.51,26.99l17.49-43-13.98,48.45c1.05,3.09,3.41,6.51,6.98,6.55,2.35-13.02,5.02-26.71,13.01-37.51l2,1.03c-6.05,16.51-6.94,33.11-7.99,50.48l10.01-16.99,1.99.5c2.31,4.6-10.07,26.37-9,27.49ZM247.17,324.99c5.61.53,10.07-1.83,8.98-7.99-.36-.5-9.83,5.06-8.98,7.99ZM1083.43,324.65c-1.48-1.29-3.63-6.47-6.9-3.76-2.88,2.38-1.86,8.19-3.36,11.69-2.31,5.37-19.44,15.6-13.34,21.46,6.19,5.95,20.48,5.29,21.31,17.41.72,10.41-5.73,10.9-6.63,16.48-.73,4.55,1.94,7.87-.92,14.07s-7.09,3.82-9,5.99-1.09,7.36-1.94,10.06c-3.28,10.35-22.64,8.11-30.79,9.2-8.98,1.2-15.14,8.06-24.86,7.13-5.12-.49-12.31-3.86-17.13-3.2-2.81.39-15.65,6.84-15.75,9.31,2.47,2.95,7.41.3,9.99,2.99,5.71,5.96-3.27,29.64-3.99,38.02-1.31,15.21.93,32.09,0,47.48l16-44.99,5.87,1.88,3.05-7.81c-4.67-.93-8.52-5.05-7.93-10.07l17.02-2.52.1-8.36,10.74-1.26c-.34-7.94,5.13-11.49,12.62-10.89,2.94.23,6.21,2.59,8.79,1.89,1.85-.5,5.47-5.84,6.22-5.84.4,0,1.78,2.41,3.23,2.83,1.92.56,3.76-.53,5.43-.29,3.5.49,5.24,2.24,7.82,3,1.36.39,3.19-.77,4.05-.14,1.91,1.4.27,7.45,3.96,6.6l.99-5.58c6.39,1.48,5.77-4.58,8.43-6.5,2.86-2.06,7.91-.29,10.08-5.92-1.2,6.03,6.06,9.38,9.01,5,2.16-3.21,2.24-31.37,2.5-37.5.56-13.32,2.9-33.95.75-46.77-1.57-9.34-18.12-24.72-25.41-31.09ZM857.1,328.99c1.32-1.75-7.31-9.06-11.93-7.47-11.34,3.91,6.15,13.57,10.44,16.46l2.49-3.96h-5s-.04-3.38-.04-3.38l4.04-1.65ZM1208.81,343.25c-1.92-1.84-4.64-.3-6.46-1-2.85-1.09-4.99-5.79-8.22-6.81-10.38-3.28-13.24,4.85-14.06-13.45-.26-.27-1.29.55-1.51.98-.53,1.09-1.56,12.44-1.55,14.53.01,2.86.71,10.04,1.13,12.93.54,3.65,2.19,5.11,5.93,4.57v-5s4.98,1.99,4.98,1.99c.14-1.97,4.13-6.41,5.73-6.85,3.72-1.03,10.01,7.93,15.22,1.27.17-.63-.67-2.65-1.19-3.15ZM1446.05,333.01l11.69,4.8c3.91.12,4.38-7.91,2.37-9.39-2.32-1.7-7.94,2.87-11.12-.86-1.01-1.18-.9-3.56-2.46-4.56-23.16,13.06-32.12,38.9-35.47,64.01,2.99-1.63,3.08-5.79,5.42-8.07,1.63-1.59,4.34-1.95,5.06-2.94.84-1.15.51-3.39,1.26-4.76.81-1.5,6.55-6.8,8.25-5.22l-3.5,7.99c2.91-2.44,10.14-3.76,10.99-7.86.27-1.29-.74-2.87-.33-4.39,1.17-4.3,7.33-2.46,6.72,1.53-1.16,7.58-21.49,16.5-26.91,22.18-10.26,10.76-.5,11.35,9.26,10.26,10.6-1.17,18.61-9.11,28.04-7.48,5.81,1,15.94,9.49,13.67-4.68-1.23-7.68-11.5-7.36-16.44-12.56-3.46-3.64-9.62-16.48-14.22-17.83-7.52-2.21-14.87,9.97-19.06,14.55-.99,1.08-1.05,2.78-3.21,2.28-1.84-1.93,17.19-26.68,20.51-28.99,3.23-.45.15,2.9.94,4,1.68,2.32,10.88-.59,12.11-3.02,1.54-3.01-4.56-5.59-3.56-8.99ZM1233.06,326.01c-6.41-.09-7.08,4.32-8.99,8.98,1.95,1.75,10.79-7.19,8.99-8.98ZM1316.07,344c2.37-.72,2.2-3.47,1.98-5.43l-5.98-11.56,4,16.99ZM1343.06,327.01c-2,2.01,6.4,10.16,8.97,5.49-.93-1.42-7.57-6.91-8.97-5.49ZM813.1,337c-1.15-1.35-8.31,4.71-1.51,10.02,4.17,3.25,21.78,4.57,22.47,8.58.76,4.42-11.98,3.03-9.96,8.39,5.38-1.53,8.13,4.35,12.19,5.34,2.38.58,5.24-.96,7.74-.25l1.08,6.91c1.78,1.62,14.84-6.79,18.58-6.95s14.74,6.04,16.36,4.91c1.82-4.46,1.68-11.97-3.21-14.2-2.05-.94-4.53-.68-6.56-1.43-5.69-2.09-9.37-9.84-11.18-15.32-3.34,1.64.23,7.43-2.6,10.06-4.87,1.38-19.48-6.79-20.38-6.06,1.58,2.61,2.99,5.95,1.5,8.99-1.95-1.34-2.66-4.24-4.55-5.45-3.1-1.99-10.25-1.12-10.97-5.53l-1.99.52v3.47s-7.99-2-7.99-2l1-9.99ZM285.24,344.07c-.47,4.16.91,9.57,5.39,10.93,1.55-.36,5.08-9.19,4.45-11.37l-2.2-1.46-7.65,1.9ZM1302.06,349c1.4-6.97-5.48-9.17-9.97-4.49,2.87,2.31,6.01,5.02,9.97,4.49ZM1324.06,342.01l-6.97,3.03.97,7.96,2.23-1.28,3.77-9.71ZM178.18,353.01c-.5.44,2.51,6.35-1.49,5.99-4.22-5-8.08-10.69-14.5-13-1.42,13.1-4.66,23.74,9.1,30.39,13.71,6.62,31.89,6.23,44.39,16.61l.94-8.05c2.37-3.39,17.47,1.22,14.11-11.96-4.62-18.1-16.57.3-24.55,3.51-4.46,1.8-8.25,1.7-13,1.51,1.67-10.33-3.98-23.27-14.99-25ZM271.17,365c12.55-1.14,7.15-13.92-.49-18-3.73.73.38,15.26.49,18ZM242.9,350.26c-1.81-1.49-5.43-.81-6.71,1.24l5.05,3.09c-.14,3.11-2.26,5.64-4.72,7.32-4.73-1.02-3.2-6.46-3.36-9.91l-7.07,2.62c-.79,3.74,9.82,19.92,13.74,20.28l2.15-1.59c1.26-5.58,6.09-18.78.91-23.05ZM253.82,350.13c-2.59,1.35-3.39,4.29-4.17,6.85-.53,1.76-2.49,8.51.04,9.02,4.37.89,9.27-11.66,7.01-15.03l-2.88-.84ZM333.15,354.01c-3.75-.54-9.55-3.22-8.99,2.98.51.5,8.56-1,8.99-2.98ZM1249.73,354.16c-2.37.74-2.35,3.95,0,4.69,3.74,1.19,9.01-2.46,13.34-.36,3.16,1.53,4.77,12.76,10.64,13.29,6.64-1.46,10.82-6.75,15.34-11.31.6-2.72-4.64-2.97-6.37-2.36-2.55.9-.42,8.37-8.1,6.91-4-.76-1.7-4.33-3-7.05-1.54-3.22-18.54-4.84-21.85-3.82ZM1398.05,432c.19-6.58-3.82-11.41-2.76-18.25,1.42-9.22,8.69-5.19,8.81-11.2.11-5.79-6.04-26.73-8.87-32.22-2.56-4.96-11.77-14.48-17.16-15.91-5.07-1.34-16.36,2.91-20.05,7.03l-11.95,14.03c13.66,8.2,37.53,5.31,35.98,27.51l-4.49-2.99c-.75-.16-.64.96-.48,1.48,1.34,4.25,14.8,27.12,17.94,29.84,1.13.97,1.64.77,3.03.68ZM1345.88,355.2c-3.37-1.92-6.38,2.61-5.81,5.79l2.83.15.17,2.86,4.94-3.65c.33-1.05-1.73-4.93-2.13-5.16ZM765.11,358.99c-1.25-8.65-21.24,2.98-17.99,6.01l17.99-6.01ZM352.15,364.98c1.7-2.48-4.6-6.6-6.99-5.98-.62,5.54,1.57,8.32,6.99,5.98ZM1218.07,372c-4.05-.71-21.17-2.61-19.83,4.53.72,3.86,15.96-.88,18.55-2.29,1.17-.64,1.69.03,1.27-2.23ZM803.09,374c-2.28-2.09-4.18,7.12-4.08,8.51l.23,1.35,3.42,1.11c5.81-1.9,1.35-6.97.43-10.96ZM1177.07,375v29l30.03-9.57c-.01-3.04-10.68-12.19-13.54-14.42-2.44-1.9-5.36-2.05-6.99-5.99l-3.98,4.77-5.52-3.79ZM1320.04,388c.84-.77,1.34-6.82.85-8.33-.96-3-5.36-2.48-4.65,2.58.12.87,1.88,7.52,3.8,5.75ZM773.12,382.99c1.93.98,9.82,2.17,8.99-1.47-.89-3.91-10.92-1.19-8.99,1.47ZM350.15,387.01l-4-.59-2.97,5.09,2.48,1.53c2.05-.02,5.67-4.38,4.49-6.03ZM315.15,394.99c.45-6.03-4.52-4.34-8.02-5.47-2.08-.67-3.65-2.67-5.96-2.52-.98,1.09,2,17.01,3.01,17.99,1.34,1.31,1.75-.22,2.22-1.26,1.62-3.56,1.87-8.85,2.77-12.73l5.99,3.99ZM1301.8,392.81c1.9-5.3-9.49-6.12-10.67-2.21-.96,3.18,4.91,5.67,7.66,4.73.19-.06,2.95-2.34,3.02-2.52ZM243.91,391.25c-1.91-1.66-6.97-1.1-7.75,1.74,6.29-2.03-.34,7.98-1.52,9.01-1.85,1.61-2.43.77-4.47,0-1.34,8.57,11.34,14.89,10.97,22.42-.43,8.74-9.42,1.66-13.27,2.72-3.21.88-3.79,12.16-9.45,6.6-.6-.59-4.36-10.88-6.25-8.74-2.2,12.75-3.17,26.12-.93,38.92,1.44,1.24,22.15-3.71,23.88-7.51.75-3.6-14-7-14.02-10.89-.02-4.66,18.65-11.12,21.39-15.75.07-6.14,4.93-35.46,1.41-38.52ZM1256.05,405.99c1.33-2.93,6.31-12.4-.18-11.77-2.96.29-3.78,1.7-6.79-1.22l1,8.99,2.98-2.99c.27.78.53,9.12,2.99,6.99ZM267.41,411.76c4.68,4.61,29.31,3.95,25.32-8.8-4.38-13.99-34.12.14-25.32,8.8ZM972.1,422.99c1.72.45,2-.71,3-1.49,1.9-1.47,9.55-8.59,9.85-10.26,1.08-5.83-10.44-18.82-12.62-6.52-.39,2.19-.97,17.71-.23,18.26ZM179.17,417c-8.89-.8-12.63-10.12-18.98-15-.3,5.61-.14,10.38,1.8,15.69,4.31,11.78,13.57,23.44,24.71,29.29l13.46,17.02c.51-7.53,3.69-22.04,1.56-29.04-1.57-5.18-4.13-2.74-6.58-3.39-5.26-1.39-7.93-23.84-17.96-23.55,1.5,2.97,3.32,5.62,2,8.99ZM1359.06,422.5v17c-2.84,3.98-8.12,1.56-11.35,2.65-1.95.66-1.23,3.9-5.12,3.94-8.79.09-8.59-13.23-18.46-6.52-4.14,2.82-6.43,6.95-7.07,11.92-1.86,14.35-.64,28.7.05,42.97.19,3.88-.82,23.28,2.46,24.54l2-2.99,4.48,1.99,5.01-10.99c-.95,2.95-2.47,19.1,1.51,18.97,3.64-6.38,5.58-9,12.56-4.36l-1.05,9.37,2.54-2.06,3.42,1.07c.74-3.41,2.55-6.8,5.51-8.76l8.5,6.75-.98-11,4.98,7.99c3.64-7.99,4.6-16.72,5.05-25.45,1.13-21.85,1.85-55.67,0-77.08-.95-10.99-3.23-6.53-9.38-11.62-2.4-1.99-3.57-5.48-6.64-6.85l1.99,8.99c-9.39-1.06-20.64-3.55-19,10.01,2.48-.08,5.01.18,7.49-.02s10.79-3.09,11.51-.48ZM256.15,406c-3.52-2.27-4.84,5.21-4.98,7.52-.11,1.86.7,13.51,2.5,13.45,3.74-2.19,4.49-19.69,2.48-20.98ZM930.1,406.01c2.37,5.86,10.1,7.55,10.97,14.4-.75,2.51-12.55,2.69-13.84,7.3s11.89,21.96,16.37,25.27c6.52-7.55,9.5-32.55,3.98-39.96-2.16-2.89-14.74-8.99-17.48-7.01ZM810.11,517.5c1.03-6.26-.76-14.93,0-21.5,1.51-.04,1.47,3.55,1.69,4.81,1.88,10.59,2.1,20.97,6.32,31.19,2.65.25,1.62.05,1.97-1.5,1.9-8.34,3.47-18.84,6.28-26.74.52-1.46.98-3.34,2.72-3.77l-2.95,19.38,4.95,10.61c4.51-24.78,1.01-50.21,5.02-74.99.22-.28,1.28.52,1.51.98,1.08,2.19.73,13.05,1.17,16.84.34,2.91,1.99,5.58,2.32,8.67,1.18,11.04-1.9,26.7-1.04,39.05.11,1.53.22,5.95,2.04,6.46v-23l9.01,18.99v-4.99s4.98,3.99,4.98,3.99c-1.73-10.4-7.61-19.37-11.57-28.92-.59-1.43-.74-2.83,1.07-2.07,3.47,1.46,10.78,17.82,13.27,21.7.63.98-.1,1.79,2.24,1.28.54-21.12,3.58-43.36,1.99-64.48-.86-11.5-6.12-22.42-9-33.51-3.88,1.38.49,5.65-1.5,8.01-6.24.14-9.71-7.58-13.74-9.26-1.22-.51-12.37-4.3-13.45-4.55-10.76-2.44-26.57.34-23.29,14.79.58.65,10.6-5.88,13.6-5.96,2.45-.07,4.18,1.77,6.86,2,5.77.49,12.06-.56,17.89.11l1.2.8c.53,3.96,1.18,18.69-2.55,20.57-.87.44-15.05,3.1-16.16,2.96-4.38-.57-3.69-3.52-5.84-5.97-4-4.57-8.96-7.07-12.56-.55-.93,12.49-1.66,25.04-1.88,37.56-.14,8.08-.76,39.18,1.71,44.73.53,1.19,1.24,1.96,2.23,2.75.71,0,3.34-5.54,3.5-6.48ZM1276.06,416.99l-1.67-2.82-8.32-.17,1.67,2.82,8.32.17ZM1395.05,518c1.75-.57,2.74-2.44,3.55-3.95,3.55-6.6,3.77-36.56,3.5-45.6-.18-5.79-1.86-11.86-1.07-17.93-8.71-11.21-17.62-20.75-19.99-35.51-1.74-.24-.94,2.27-.99,3.48-.63,16.77.99,31.6,1.99,48.02.78,12.87-.02,33.47,3.67,45.33.47,1.52,1.16,3.6,3.34,3.15,2.65-9.22.2-18.15,3.02-26.99,1.67-.86,2.99,1.72,2.99,2.5v27.5ZM770.84,416.22c-11.46,2.65,7.36,14.23,9.75,13.77s2-11.1.06-13.02c-1.58-1.57-7.57-1.27-9.8-.75ZM1337.05,422.99c.88-13.25-12.45-2.9-8.35-1.01l8.35,1.01ZM1562.04,442c13.23-3.26,19.71-19.39,3.66-23.91-1.61.46-3.66,7.01-3.66,8.41v15.5ZM572.04,419.09c-4.11-2.8-20.23,13.09-14.89,17.4.86.69,2.57.66,4.02,1.98,3.77,3.43,6.81,12.59,10.14,16.86.86,1.11,1,2.08,2.82,1.67,1.38-4.77-.07-36.54-2.08-37.91ZM593.13,429.99c.79-.74-3.71-10.4-5.99-10.99-.02,3.79.66,11.64,5.99,10.99ZM285.16,420h-14.5c-.53,0-2.24,1.25-3.34,1.14-1.66,8.76,12.28,3.88,16.55,1.1.97-.63,1.79.12,1.29-2.24ZM1520.04,423.01c-1.84,1.6,7.75,8.01,8.47,9.01,6.61,9.21-9.69,8.64-10.5,14.53-.61,4.42,12.48,26.16,15.5,25.45,6.1-8.67,8.54-28.29,5.07-38.04-1.8-5.05-13.03-11.69-18.54-10.95ZM424.15,424c-2.75-.61-10.12,2.02-9.83,5.31,1.12,5.45,7.53,7.39,7.84,12.68,1.01.43,1.99-2.33,1.99-2.49v-15.5ZM1220.08,437l-2.53-6-5.98,3.92c-3.4-2.16-2.63-8.31-7.05-8.94-5.16-.74-6.94,4.69-6.45,9.03-3.05.32-3.53-3.42-5.61-4.88-6.22-4.4-3.75,3.86-6.96,4.82-4.04.85-2.91-6.12-6.26-1.27l-.16,93.33c2.02-.39,1.63-2.12,1.98-3.51,2.65-10.28,1.71-22.92,2.02-33.49,2.67,2.95,5.71,11.78,5.95,15.65.26,4.32-7.07,9.79-2.46,15.33,2.1-.11,5.25-15.27,5.51-17.98,4.21-1.04.21,5.32,2.98,5.99,2.49-5.19-.37-8.95-.98-13.99l4.54.74c1.07-.18,1.32-1.3,1.46-2.24,1.41-9.22-2.89-20.34-2.2-29.8-1.49-4.55-7.59-1.21-9.9-4.1-3.16-6.26,1.28-18.09,8.64-18.64,1.53-.11,3.21.81,4.59.53,1.91-.39,5.6-4.47,8.39-4.15,1.27.15,3.31,4.08,7.05,4.63,4.47.65,7.25-1.72,11.37-1.92,2.95,12.22,6.13-7.97,5.05-9.04-3.49-2.09-11.68,6.98-12.98,6ZM370.4,428.23c-2.64,2.46.16,5.24,4.3,2.82,5.42-3.17-1.01-5.88-4.3-2.82ZM892.75,435.35c-2.27-1.75-11.81-8.62-14.01-8.21-2.67.5-4.05,7.99-4.51,10.48-2.66,14.44.45,29.43-2.16,43.84l1.05,34.54c2.78.48,1.68-.58,2.25-2.19,3.03-8.56,4.52-19.35,6.7-28.36.67-2.75,1-2.78,1.08.08-.71,16.74-3.54,32.99-6.03,49.48,4.61.86,6.47-3.43,9.5-5.99l-.5,5.99,3.56-.93c8.8-13,11.47-29.8,17.94-44.07,3.08.09-9.07,38.75-8.49,42.01l4.98-8.99-.99,12h5.01c.7-6.91-5.17-11.01-3-18.01,5.03-1.65,2.82,6.39,5.22,8.78,1.13,1.13,4.54,1.01,4.76,1.25.99,1.11-2.66,6.16,1.01,6.97.87-1.49,3.36-16.66,5-15l2.51,7.98c1.22-.02,7.66-18.09,11.98-21.08,2.85-1.98,3.62,2.25,5.51,3.1.66-20.39-1.14-40.53-15.02-56.47-10.94-12.58-13.28-5.52-24.96-10.04-4.81-1.86-5.69-5.08-8.36-7.14ZM1433.04,526c2.57-6.7,1.57-12.71,2.02-19.49,1.22-18.49,1.98-38.44,1.03-57.05-.12-2.31-.83-12.74-1.19-13.81-1.04-3.14-5.35-.79-7.9-1.1-5.75-.7-10.43-3.53-15.95-4.54,0,12.17,0,24.36-.05,36.54-.03,10.07.82,20.66.03,30.95-.34,4.42-2.93,8.75-1.99,13.5,12.83-.79,7.81-15.99,14.98-22,.53,11.81-.23,23.36-1.98,34.99l2.45-1.99,3.53-9c1.44,3.69,1.88,7.79,2.98,11.53.43,1.46-.57,1.74,2.02,1.46ZM136.17,433c-6.29.32-4.37,4.78-5.65,8.84-1.51,4.75-5.59,5.35-8.82,8.18-4.98,4.37-10.53,10.48-16,14-5.81,3.75-12.61,4.09-17.46,7.54-8.04,5.73-12.75,25-15.56,34.43-5.29,17.71-9.63,35.95-13.49,54,1.5,1.9,17.58-17.15,18.96-18.53,11.34-11.3,23.33-22.13,35.53-32.47l.49,1.48c-14.97,16.6-34.67,32.23-47.97,50.03-5.07,6.79-10.51,14.71-11.01,23.48,5.12-.42,9.79-2.77,14.79-3.7,8.92-1.66,19.24-.05,25.72-7.29l1.34.17c.17.11,0,1.61.8,1.82,3.43.9,15.01-.82,18.27-2.57,5.87-3.16,1.02-14.28,5.58-19.42,2.58,12.54-2.68,24.01,15.05,16.05l-.56-136.05ZM366.15,433.01c-6.88.09-8.01,10.69-7.98,15.99l7.98-15.99ZM384.84,433.16c-10.01.93-7.58,18.44-.2,18.49,6.53.04,5.61-18.99.2-18.49ZM413.47,490.75c-2.34-4.96,1.99-11.84,2.18-16.22.26-5.97-13.19-36.23-18.16-39.46-1.4-.91-2.29-.73-3.76-.17-3.84,8.9,2.25,38.03-7.6,42.6-7.27,3.37-7.92-13.5-11.98-9.5-1.02,1,6.08,12.63,6.89,15.6,3.37,12.44,2.08,26.95,4.28,39.72l2.83,1.66c1.6-8.59,1.57-16.62-.99-24.99,4.47-4.31,6.94,14.5,6,16.99l2-11.99,3.11,9.39c.65,1.38,1.79,2,3.29,1.55,1.11-.34,6.03-10.96,9.57-13.52,2.53-1.83,3.78-.47,5.28-1.33,5.36-3.08,6.01-12.43,5.72-18.08l-4.96,11.53-3.03.46c2.17-4.61-.41-3.67-.68-4.24ZM373.15,435c-7.61-.62-9.27,15.75-2.2,11.77,2.49-1.4,2.43-9.09,2.2-11.77ZM338.14,436c-3-.79-2.1,2.45-1.97,4.48.19,2.96.63,7.04.98,10.03.16,1.41.63,2.95,1.99,1.48l-1.01-16ZM346.14,436c-2.75-2.54-2.95,5.95-2.77,7.24.75,5.28,6.42,13.84,7.78,4.76-5.79,1.54-2.94-10.08-5.01-12ZM423.14,443c-6.26,2.61-10.15-9.98-17.06-4.37,2.28,9.79,7.99,18.21,13.58,26.37,2.4.43,1.21-1.1,1.45-2.51,1.13-6.45,2.47-12.91,2.03-19.49ZM1465.03,523.99c3.85-15.67,1.41-32.33,1.87-48.4-8.4-3.16-5.01-13.04-5.84-20.11-.74-6.32-3.05-4.09-5.54-6.46-3.26-3.1-6.02-8.01-11.47-9.02-.95,6.81.86,14.02,1.04,20.45.28,10.21-1.53,72.88,1.97,76.54,2.58.42,1.55-.27,2.08-1.41,2.84-6.07,3.28-17.69,3.92-24.59l1.98,10.5c.54,3.41-1.55,8.82,2,10.49l5.53-9.99,2.47,1.98ZM1250.07,445c-.42,6.09-.21,18.58,8.99,14.47,5.29-2.36-6.66-16.87-8.99-14.47ZM311.66,446.02c-4.37,3.51-.94,12.45-3.4,15.58-2.3,2.92-8.63.3-12.08,1.92-7.94,3.73,9.7,10.1,15.44,3.45,3.16-3.66,4.02-20.97.04-20.94ZM1288.25,448.78c-.72-.42-.62-3.19-2.67-2.78-.81.16-2.04,1.76-1.05,3.03.8,1.03,3.92,1.38,5.5,2.51,2.9,2.07,4.84,5.68,8.03,7.46l-.94-10.58c-1.68-1.25-6.39,1.83-8.86.36ZM1632.61,460.45c-4.18-4.27-9.69-7.96-14.06-12.11-8.57,2.38-15.49,7.11-24.5,4.13-2.64-.87-7.1-4.33-9.36-4.22-2.42.12-17.72,8.04-18.66,10.27-.81,1.92,1.22,1.45,2.22,1.72,8.52,2.34,9.72,2.85,8.66,13.16-1.95,18.96-7.9,34.58-5.88,55.09.12,1.21,1.48,8.64,2.97,7.51-.25-1.49,3.44-8.75,5.01-6.99l.02,9c5.06.68,4.15-5.97,7.98-6l-.59,6.03c2.29,3.31,22.17,1.66,27.13,1.93,15.3.82,30.66,3.13,45.96,4.03,6.8.4,13.75.05,20.56.58,2.87-2.05-.95-30.69-2.34-35.8-4.49-16.5-16.2-11.39-20.93-20.07-1.93-3.55-2.08-9.08-4.78-12.22-3.09-3.6-10.42-4.4-12.75-6.74-1.68-1.69-3.86-6.41-6.68-9.29ZM1772,470.99c2.57-7.48,18.61-17.23,3.48-20.75-2.7.39-4.35,15.25-4.51,18.24-.06,1.09-.54,2.79,1.03,2.52ZM275.16,460.99c1.58-2.21-5.65-5.27-7.85-3.86l-1.08,3.27c2.07,3.07,6,1.24,8.93.58ZM1207.08,473c2.29.47,2.77-1.65,3.31-3.17,1.19-3.29,4.94-17.99-1.85-10.85-3.74,3.93-2.8,9.21-1.47,14.02ZM1475.05,475c5.18-3.41,15.63-19.21,2.89-17.42l-2.89,17.42ZM1700.91,469.89c1.75-4.99,6.59-10.11-1.35-11.87-2.17.47-3.23,9.82-1.47,11.93l2.81-.05ZM1231.06,499c.11-6.17,2.81-33.06-.97-35.52-1.24-.81-3.9-.43-5.77-1.23-2.7-1.16-4.77-6.42-7.49.01s-.26,27.63,3.64,33.87c.83,1.32.12,2.39,2.6,1.86l-4.99-13.98c3.77,1.26,4.67.27,7.99-1-.2,5.57-.36,12.72,4.99,15.99ZM1704.02,548c7.06.8,14.34,1.13,21.38,2.11s16.67,3.86,23.17,3.93c1.12.01,2.31.03,3.01-.99,2.03-14.71.44-29.87,1.45-44.54,1.15-16.66,7.98-32.69,6.98-49.51l-5.06,6.42c-14.34,1.66-25.65,13.69-39.46,13.62-4.63-.02-9.23-1.64-14.45-.04.7,4.24,6.7,2.82,6.86,8.44.17,5.98-2.41,14.74-2.85,21.06-.92,13.1-1.06,26.36-1.02,39.49ZM256.15,492c-.3-4.69-3.78-8.83-4.04-13.53-.3-5.4,3.57-11.4,3.99-16.92l-2.41-1.54-6.39,5.69.85,8.29c-1.12-.58-2.51-.29-3.49-.96-1.44-.99-6.19-7.95-6.49-3.56l17.98,22.51ZM1500.54,537h20.5l-1.99-13,6.97,12.52,3.02-1.02v-43c-5.62-6.13-12.93-23.68-19.3-27.82-4.52-2.93-5.01.5-8.91,1.61-5.32,1.52-12.08.97-15.21,5.79-7.12,10.97-10.26,42.4-8.35,55.17,1.19,7.89,8.11,9.32,13.26,3.76l2.49,2.97c2.34-12.63,3.93,1.97,7.51,3.01ZM1294.06,464.01c-3.3-.5-1.76,4.1-4.46,6.11-1.66,1.24-3.48-.24-5.25.57-2.08.95-2.62,3.68-3.79,4.3-2.31,1.22-1.05-2.87-1.65-3.83-.89-1.42-7.29-3.05-8.91-.49-1.56,2.44-1.32,34.71.09,36.33,2.33.61,1.67-.57,2.29-1.27,5.61-6.47,12.12-15.53,17.73-22.49,4.9-6.08,4.15-11.82,3.97-19.23ZM1107.08,486.5v-21.5c-2.1,1.26-2.04,4.68-3.55,6.95-3.63,5.47-11.12,7.94-17.45,7.06,3.09,5.17,3.26,11.15,3.01,16.99l6.72-6.77,11.27-2.73ZM1674.11,488.08c-1.06,4.26,2.99,6.17,5.41,8.9,6.66-3.89,9.35-30.42,1.85-31.81-10.2,2.29.8,9.47,2.2,13.77,3.51,10.75-8.11,7.11-9.47,9.14ZM163.15,467.01c-2.63-.24-1.65-.11-1.95,1.51-5.3,28.69,2.37,64.56-.08,94.03l1.63,3.33,24.99-5.84-7.57-20.03c2.2-.54,2.23,1.26,3.2,2.29,3.43,3.61,5.86,8.09,9.3,11.7,1.05-6.9-2.01-14.03.51-20.99,4.75,2.15,2.39,9.51,6.98,12l1.91-21.61c-2.27-5.89.18-11.33.15-16.85-.03-6.02.27-19.6-6.04-21.54.14,2.85.03,7.34-3.49,7.99-1.86-.39-2.24-9.42-3.28-11.73s-7.44-8.4-9.94-9.05c-6.11-1.59-4.78,1.77-7.2,2.39-6.01,1.54-7.43-2.87-9.11-7.6ZM227.67,468c-4.97-.82-11.77.6-17,0l-1.51,2.45,7.02,11.07c-8.6,10.11-5.56,25.25-5.81,37.77.65,2.2,18.47,15.5,21.22,16.78,4.84,2.24,5.67,1.16,3.41-3.41-3.99-8.04-13.27-16.89-18.83-24.18l.49-1.48c9.59,7.34,17.9,15.63,25.49,24.99-.18-13.89-4.79-31.67-11.8-43.69-.89-1.53-7.98-9.54-7.18-10.3,11.19,3.88,19.51,19.83,24.17,30.32,1.68,3.79,4.87,15.74,6.36,17.64,3.26,4.18,3.58-3.9,3.47-5.45-.75-10.21-14.92-42.72-22.97-49.05-1.45-1.14-4.89-3.2-6.53-3.47ZM1253.06,505c1.19-10.82,2.87-21.57,2.05-32.54-.13-1.79.28-3.24-1.54-4.44-2.54.03-4.4,24.44-3.38,27.36l2.87,9.62ZM349.15,543.5c.81-2.62,0-15.03,0-19,0-.21,1.69-1.82,1.99-1.5-.46,1.3,1.01,2.95,1.01,3.5v15.5l4.02-12h2.98s1.1,5.4,1.1,5.4l5.89,5.59,1.88-8.53c-2.67-3.79-7.43,4.48-7.93-2.96.27-2.91,3.1-2.83,5.44-2.41l2.6,3.9c.66-4.41-1.58-10.45,1.53-13.99,2.37-1.11,2.72,8.02,6.48,6.98-4.5-5.78-.22-12.46-.93-18.54-.23-1.93-1.83-3.69-1.83-3.98.02-1.22,5.74-4.06,5.78-8.95.11-13.13-19.13-25.78-30.71-20.71-15.38,6.73-11.82,31.84-9.3,45.18,1.27-.39,2.83-4.15,3.19-5.28,1.96-6.07,1.09-7.07-1.19-12.71,4.24,3.03,7.57-3.37,8.56-6.93,1.67-6.04.69-11.95.43-18.06,2.89-3.47,4.67,11.6,4.95,12.54,1.35,4.68,3.89,5.52,6.05,9.44l-4.5-2.97c-4.25,6.08-8.84,14.39-.5,18.97-5.49-.75-13.78,12.93-13.81,16.71-.02,2.07,2.75,2.67,2.81,4.77.07,2.37-3.03,4.53-3.59,6.5-1.5,5.31,6.63,6.64,7.59,3.52ZM1263.06,484c1.05-3.95,4.43-16-3.45-13.98-2.42.62.5,10.69,1.37,12.57.53,1.14-.5,1.83,2.08,1.41ZM308.9,482.25c-1.67-1.73-9.98-4.46-12.74-4.24-1.74,1.51,10.87,11.31,12.51,11.98,2.7,1.11,1.55-6.37.23-7.74ZM1021.09,519v14l4.49-4.01,2.5,4.01c1.66-3.92-2.41-5.97-2.89-7.69-.62-2.25,13.84-15.78,5.4-17.3l-25.49-1c-.28-1.43.33-2.36,1.69-2.79,4.8-1.55,16.85-1.28,17.23-8.74.49-9.62-8.55-6.65-14.39-6.41-1.1.05-3.8.62-3.53-1.03,6.46-3.23,14.88-3.54,19.99-9-15.1,4.04-26.53,9.5-33.17,24.31-2.48,5.53-4.11,12.31-5.84,18.16,1.63,1.23,1.75-3.38,2.57-4.43.77-.98,1.06-1.34,2.42-1.04-.27,3.04,3.34,2.46,4.06,3.69,1.06,1.8.91,6.1.98,8.29l2.5-7,2.48,7,4.02-16.99c1.67-.26,1.07,2.42,1.04,3.53-.15,4.76-1.8,9.49-1.04,14.46l5-13.99,2.81,1.67.18,7.33c3.37-1.07,3.03-6.03,6.99-5ZM506.13,482c-1.88-.43-2.37,1.07-3.5,1.99-1.63,1.34-12.76,12.63-11.49,14,2.91-1.9,4.13-5,8.35-4.03.99.23.05,3.08,2.63,2.03l4-14ZM274.15,530c3.79-7.54,10.35-35.07,5.94-41.41-.65-.93-1.2-1.61-2.44-1.63-6.06-.56-8.01,8.87-8.48,13.56s-.74,25.47,2.44,28.55c.84.82,1.27,1.19,2.54.94ZM294.15,520c2.07-10.2,16.35-31.65-2.34-33.06-2.38.55-1.87,18.36-1.65,21.55.11,1.59,1.13,14.15,3.98,11.51ZM441.16,515c3.38-1.69,3.29-6.12,2.91-9.41l-7.91-17.58c-1.41,9.22,1.6,18.59,5,26.99ZM632.13,521v-14.5c0-.63-1.72-8.44-3.49-7.49-4.65,2.49-2.04,19.83,3.49,21.99ZM416.15,515.01c8.73,3.66,6.45-13.07,4.5-12.99-2.23,2.73-4.35,6.03-5.69,9.29s-4.6,12.48-.82,14.69l.05-4.96,4.93-1.53-2.98-4.5ZM937.82,512.28c-.63-.61-3.2-1.64-3.71-1.28-2.24,6.02,1.82,11.94,1.14,18.35.26,1.65,3.14,2.2,3.84,1.65,1.97-1.55-1.89-2.12-2.02-2.61-.96-3.81,1.76-3.16,2.34-4.59,1.25-3.09.83-9.18-1.59-11.52ZM1412.04,526.99l3-12.99c-4.68,1.1-4.07,5.43-4,9.5.02,1.19-.71,3.74,1,3.49ZM1040.04,516.03c-4.68-.16-5.27,1.47-5.83,5.58-.15,1.06-.97,4.56.86,4.39l4-4.99-.98,11c2.22-1.45,1.68-4.22,4.64-5.91,2.84-1.61,4.42.95,6.32-1.59-5.09-2.49-8.34-1.39-9.02-8.47ZM1092.09,526.99c4.74,1.57,8.68,4.57,14.02,2.54,1.95-1.07-1.54-4.3-1.74-6.16-.15-1.39.83-2.92.7-4.37l-3.61,4.88-9.37,3.1ZM620.11,520c-2.74-2.63-2.11,7.4-2.03,8.54.13,1.79-.28,3.24,1.54,4.43,2.51,0,1.57-10.98.48-12.98ZM294.17,541c4.36-4.76,5.42-13.67,6.98-19.99-1.64.48-2.43,3.95-3.01,5.48-1.74,4.57-3.31,9.66-3.97,14.52ZM216.82,529.35c-1.19-1.1-5.98-5.22-6.65-1.83,4.01,7.87,9.66,16.82,18.99,18.48,1.27-1.54-10.52-14.96-12.34-16.65ZM1912,549.01c-13.12,2.11-16.94,15.28-15.99,26.99l11.26-10.28c2.62-5.25,5.3-10.58,4.73-16.71Z"/>
  </g>
</svg>