<?xml version="1.0" encoding="UTF-8"?>
<svg id="Calque_2" data-name="Calque 2" xmlns="http://www.w3.org/2000/svg" viewBox="0 0 396.36 500">
  <g id="Layer_1" data-name="Layer 1">
    <g>
      <path d="M184.53.63c-1.71.31-5.36,2.1-8.16,4.04-8.94,6.06-11.27,13.76-9.87,31.72.62,8.01.93,9.33,2.88,11.74,5.6,7.31,9.09,16.01,8.16,20.76-1.01,5.44-14.07,17.18-20.6,18.5-1.48.31-3.89,1.63-5.29,3.03-2.25,2.1-3.11,2.41-6.76,2.41s-4.43.23-7.38,3.11c-1.71,1.71-4.04,4.97-5.13,7.15-1.01,2.25-2.18,4.12-2.49,4.12-.93,0-8.24,9.48-9.56,12.44-2.8,6.22-8.86,13.45-17.72,21.07-1.55,1.32-2.41,2.8-2.41,4.12,0,2.33-4.12,7.15-9.79,11.35-1.94,1.48-5.75,4.66-8.4,7.07-2.57,2.33-6.45,5.75-8.47,7.46-2.1,1.79-6.92,6.84-10.81,11.27-13.06,14.85-24.95,27.05-26.59,27.52-.86.23-2.88,2.02-4.35,3.96s-3.19,3.96-3.73,4.59c-1.17,1.24-6.06,1.48-6.76.31-.86-1.32-1.94,0-1.94,2.33,0,1.48-.78,2.8-2.41,4.2-1.32,1.09-2.64,2.02-3.03,2.02-.31,0-3.34,3.5-6.61,7.85-3.96,5.29-5.75,8.24-5.44,9.17.23.78-.16,2.88-.78,4.74-1.48,4.2-1.48,4.66.23,4.66.78,0,2.25-1.63,3.65-3.96,2.41-4.12,5.99-7.62,6.45-6.3.16.47-1.4,3.81-3.42,7.54-2.49,4.66-3.34,7-2.8,7.54,1.24,1.24,2.25.23,6.76-6.76,6.37-9.95,7.62-9.87,5.6.16-.78,3.65-1.17,6.84-.93,7.07,1.17,1.24,3.19-1.71,4.97-7.15,1.71-5.52,2.25-6.3,7.38-11.04,6.61-6.06,5.99-5.36,9.48-9.48,1.55-1.79,3.65-3.5,4.66-3.73s1.87-.78,1.87-1.17.93-1.17,2.18-1.63c2.49-1.17,9.95-6.45,10.65-7.7.31-.47,3.58-2.8,7.31-5.21,3.65-2.33,9.64-6.76,13.29-9.72,3.65-3.03,9.41-7.31,12.83-9.48,5.99-3.89,10.49-7.93,18.66-16.79,2.18-2.33,5.99-6.22,8.55-8.63s7.38-7.15,10.73-10.57,7-6.69,8.08-7.23c1.87-1.01,2.1-.93,3.26.78,2.33,3.42,8.01,16.71,11.04,25.73,4.97,14.92,6.53,28.14,4.51,38.32-.86,4.2-.78,4.59,1.01,7.38,3.03,4.51,3.19,9.02.47,13.84-1.55,2.8-2.41,5.83-2.95,10.49-.54,4.28-1.55,7.85-2.8,10.42-3.03,5.75-3.5,8.08-2.57,11.27.78,2.64.54,3.42-4.66,13.76-10.73,21.53-16.4,36.22-16.87,44.15-.39,5.44-2.33,14.69-3.81,17.49-.78,1.48-3.03,5.36-5.13,8.55-2.02,3.19-4.12,6.84-4.74,8.16-.54,1.24-1.17,2.49-1.4,2.72s-1.63,2.33-3.11,4.66-5.21,7-8.32,10.26c-3.5,3.73-6.61,8.01-8.32,11.35-1.4,3.03-4.04,7.85-5.75,10.73-4.35,7.54-7.07,13.21-8.71,17.72-1.17,3.34-8.08,21.53-14.07,37-.93,2.33-3.5,7.07-5.75,10.49-2.18,3.42-4.9,7.77-6.06,9.72-1.09,1.94-4.12,5.21-6.69,7.38-4.74,3.96-5.44,5.44-3.81,8.4,2.25,4.35,6.53,6.06,16.01,6.61l7.23.39,2.72-2.64c2.18-2.1,2.64-3.11,2.64-5.91,0-2.49.54-3.89,2.25-5.83,2.64-3.03,4.35-6.92,5.13-11.58.62-4.12,7-17.49,10.57-22.54,5.6-7.7,15.16-19.2,19.9-23.86,6.06-5.99,8.55-9.87,15.31-24.25,2.95-6.22,6.69-12.98,8.32-15.08,1.71-2.1,3.03-4.12,3.03-4.59,0-.39,2.57-3.42,5.67-6.69,3.03-3.26,6.61-7.85,7.85-10.18s5.21-8.55,8.78-13.68l6.45-9.48,5.21-.47c8.16-.86,9.64-.86,14.69-.23l4.82.62,4.12-7.62c5.83-10.88,13.6-23.86,14.92-24.95.93-.78,2.41-.31,7.62,2.18,3.58,1.71,7.85,3.34,9.48,3.65,1.55.23,2.88.7,2.88.93,0,.31,1.17,2.57,2.64,4.97s3.26,6.92,4.04,10.03,1.71,6.06,2.1,6.61,2.64,1.01,5.05,1.17l4.35.23,6.84,9.33c3.81,5.13,8.78,12.44,11.19,16.17,3.96,6.45,4.28,7.15,3.73,10.26-.31,2.41-.08,4.12.78,5.83.62,1.4,2.49,7.23,3.96,13.06,4.12,15.47,5.99,19.74,12.44,27.75,15.16,18.81,21.45,27.98,26.82,38.87,7.31,14.92,8.55,19.12,9.48,30.71.39,5.36.93,9.95,1.24,10.26s9.64-.31,20.76-1.4c11.12-1.09,26.9-2.1,35.06-2.18,13.99-.23,18.19-.86,18.19-2.72,0-1.01-5.83-3.58-11.66-5.21-9.56-2.64-22.85-8.08-24.49-10.03-.86-1.01-2.72-2.02-4.12-2.33-1.71-.39-2.49-.93-2.33-1.71s-.7-1.55-2.33-2.1-4.66-3.26-8.32-7.46l-5.83-6.53-4.59-14.46c-2.57-7.93-4.9-15.47-5.21-16.71-.23-1.32-.93-3.11-1.55-3.96-.54-.93-2.88-6.84-5.21-13.21-5.44-14.85-10.11-25.5-12.59-28.76-1.09-1.4-1.94-3.19-1.94-3.96s-.54-2.18-1.17-3.11c-1.4-1.94-3.03-7-4.2-12.59-.47-2.33-1.55-5.44-2.41-7-.78-1.55-1.63-4.04-1.87-5.52s-1.71-4.82-3.34-7.38c-2.64-4.35-2.8-5.05-2.88-11.43-.08-3.81.16-6.84.54-6.84,1.32,0,.23-4.82-4.82-21.22-2.95-9.48-6.61-19.9-8.24-23.09s-3.65-7.93-4.43-10.49c-.86-2.57-2.25-5.6-3.03-6.69-.78-1.17-1.48-2.57-1.48-3.19,0-2.72-1.87-7.15-4.04-9.64l-2.49-2.8,1.48-2.64c1.17-2.25,1.32-3.65.93-9.72-.31-3.89-.86-7.62-1.24-8.32s-.39-1.87.08-2.95c.62-1.4.47-2.33-.78-4.35-3.65-5.99-13.21-30.24-16.25-41.04-1.79-6.61-2.33-12.44-1.17-12.44,1.63,0,9.79,10.49,15.16,19.59,2.72,4.59,32.8,33.89,45.09,43.92,2.25,1.87,5.67,4.2,7.62,5.21s3.96,2.41,4.43,3.03c.54.62,1.63,1.01,2.33.78,1.01-.23,2.41,1.17,5.05,5.13,2.1,2.95,4.82,6.3,6.22,7.31,1.4,1.09,5.44,5.6,9.09,10.11,3.65,4.59,7,8.24,7.54,8.32,1.87,0,1.87-1.71-.16-5.05-2.72-4.66-1.32-4.51,5.67.78,3.11,2.33,6.37,4.28,7.23,4.28,2.64,0,1.63-2.64-2.57-6.37-3.5-3.11-3.89-3.73-2.72-4.2,1.01-.39,2.8.47,5.99,2.72,5.29,3.73,7,4.04,7,1.24,0-1.48-1.87-3.42-8.71-9.02-4.82-3.96-8.78-7.46-8.78-7.93,0-.39.54-1.09,1.24-1.55,1.01-.62,3.26,0,9.79,2.8,4.66,2.02,8.94,3.65,9.48,3.65s.86-.7.7-1.71c-.23-1.94-7.31-7-14.61-10.42-5.6-2.64-7.77-4.74-7.77-7.38,0-1.63.54-2.49,2.33-3.42,1.24-.62,2.64-1.17,3.11-1.17,2.33,0,9.17-4.04,10.03-5.91,1.17-2.64.62-3.11-2.49-2.1-1.32.54-4.74,1.32-7.54,1.79s-7.31,1.4-10.11,2.02c-9.17,2.02-10.88,1.71-16.09-3.19-2.49-2.33-4.82-4.28-5.21-4.28-1.55,0-11.74-11.5-20.68-23.24-8.32-10.96-11.12-14.38-16.17-19.12-3.42-3.26-6.37-7.07-6.37-8.32,0-.78-.7-2.02-1.55-2.72-.86-.78-1.55-2.25-1.55-3.26,0-1.09-.78-2.72-1.71-3.73-1.48-1.55-1.55-1.94-.62-2.57s.78-1.09-.93-2.49c-2.41-2.02-5.52-9.25-7.7-17.49-2.95-11.74-6.84-20.83-10.73-25.26-1.17-1.4-2.41-3.34-2.72-4.35-1.32-4.04-14.15-10.73-22.23-11.5-2.8-.31-5.6-.93-6.22-1.48s-3.11-1.87-5.6-2.95c-2.41-1.09-4.74-2.64-5.21-3.5-.47-.93-.86-5.83-.86-11.27,0-8.78.16-9.79,1.63-11.12,3.26-2.95,4.12-5.75,4.12-13.53,0-5.21-.54-9.17-1.71-13.45-.93-3.26-1.71-6.84-1.71-7.93,0-3.26-3.03-10.18-5.67-12.9-1.4-1.48-3.19-3.58-3.89-4.74-.78-1.24-3.42-3.19-5.99-4.51-4.74-2.41-8.24-2.8-15.16-1.63h0ZM176.06,122.13l1.48,3.34.23-3.34c.16-2.18.62-3.26,1.4-3.26,1.01,0,1.17.86,1.32,8.94.08,6.22-1.63,6.76-3.96,1.32l-1.63-3.65-.08,3.65c0,2.8-.31,3.73-1.17,3.73-.93,0-1.17-1.24-1.17-6.45,0-8.63,1.09-9.95,3.58-4.28h0ZM197.36,119.8c0,.54-.31,2.25-.7,3.73-1.71,6.69-1.71,6.84-.08,7.15,2.41.39,2.25,1.79-.16,2.02-2.57.31-3.26-1.55-2.25-6.22.39-1.79.93-4.28,1.24-5.52.39-2.1,1.94-2.95,1.94-1.17h0ZM189.97,120.58c.16.54.47,3.58.78,6.61.39,4.82.31,5.67-.7,5.67-.7,0-1.24-.7-1.24-1.55,0-1.24-.54-1.55-2.33-1.55-1.55,0-2.33.39-2.33,1.17,0,.62-.31,1.17-.78,1.17-1.79,0,.39-8.32,2.88-11.04,1.48-1.63,3.26-1.87,3.73-.47ZM168.91,122.13c1.63,2.33,1.63,9.41,0,11.04-1.63,1.63-3.96,1.55-4.82-.16-.39-.7-.78-3.11-.86-5.36-.16-3.26.16-4.28,1.55-5.6,2.25-2.02,2.64-2.02,4.12.08h0ZM208.55,120.89c1.71.7,1.55,6.06-.31,10.18-1.24,2.88-1.79,3.34-3.81,3.34-4.35,0-4.74-.47-3.58-4.12.62-1.79,1.48-4.74,1.94-6.61.7-2.72,1.17-3.26,2.72-3.26,1.01,0,2.33.23,3.03.47h0ZM219.12,124.7c2.1,2.49-2.49,12.05-5.75,12.05-3.03,0-3.96-1.87-2.8-5.44,2.33-7.07,5.91-9.79,8.55-6.61ZM160.82,126.25c0,1.09.39,3.5.93,5.44.86,3.03.78,3.65-.16,4.28-.93.54-1.32.16-1.87-2.02-.86-3.42-2.41-3.03-2.41.7,0,4.74-1.94,4.28-2.1-.47-.16-6.14,0-7.07,1.79-8.55,2.33-1.87,3.81-1.63,3.81.62h0ZM195.65,148.87l3.34,5.83-.86,4.82c-.54,2.64-1.4,6.92-2.1,9.48-1.94,7.93-3.34,16.87-3.34,21.77,0,2.57-.93,8.55-2.1,13.29l-2.02,8.63-5.52.47c-2.95.31-5.6.31-5.83.08-.7-.7,1.48-11.82,3.42-17.88,1.48-4.35,1.94-7.07,1.63-9.33-.62-4.74.78-12.05,3.81-19.67,1.48-3.73,2.95-7.93,3.19-9.25l.54-2.49h-23.55v-11.66h13.06l12.98.08,3.34,5.83h0Z"/>
      <path d="M186.55,124.93c-1.09,2.02-.78,2.8.86,2.33.78-.16.93-.86.62-2.18l-.47-1.94-1.01,1.79ZM166.03,123.3c-.31.23-.54,2.41-.54,4.66,0,5.44,1.87,5.29,2.18-.16.23-3.58-.54-5.67-1.63-4.51ZM203.97,126.8c-1.48,5.05-1.48,5.44.16,5.13,1.24-.23,4.35-7.85,3.5-8.71-1.24-1.32-2.57-.08-3.65,3.58h0ZM215.39,126.8c-1.17,1.48-3.26,5.91-3.26,6.84,0,.39.54.78,1.17.78,1.17,0,4.28-5.29,4.28-7.38,0-1.4-1.09-1.55-2.18-.23ZM157.33,127.5c-.31.47-.39,1.01-.16,1.24.54.54,2.1-.47,2.1-1.4s-1.32-.93-1.94.16Z"/>
    </g>
  </g>
</svg>